<?xml version="1.0" encoding="UTF-8"?>
<svg viewBox="0 0 130 46" version="1.1" xmlns="http://www.w3.org/2000/svg" xmlns:xlink="http://www.w3.org/1999/xlink">
    <!-- Generator: Sketch 49.2 (51160) - http://www.bohemiancoding.com/sketch -->
    <title>Snark Logo</title>
    <desc>Created with Sketch.</desc>
    <defs>
        <polygon id="path-1" points="0 2.55555555e-05 45.9999744 2.55555555e-05 45.9999744 46 0 46"></polygon>
    </defs>
    <g id="Boostrap-3-Grid" stroke="none" stroke-width="1" fill="none" fill-rule="evenodd">
        <g id="Miners" transform="translate(-150.000000, -49.000000)">
            <g id="Snark-Logo" transform="translate(150.000000, 49.000000)">
                <path d="M63.2342445,29.9148936 C61.04488,29.9148936 58.8357915,29.2845304 57.6129032,28.3676384 L58.6977235,26.0372047 C59.8614397,26.858587 61.5971521,27.4316445 63.2539685,27.4316445 C65.147473,27.4316445 65.9167092,26.8203832 65.9167092,25.9990008 C65.9167092,23.4966498 57.8890393,25.2158223 57.8890393,20.2493241 C57.8890393,17.9761961 59.7825437,16.0851064 63.7076206,16.0851064 C65.443333,16.0851064 67.2184935,16.4862466 68.5005537,17.2694252 L67.5143535,19.6189609 C66.2322932,18.91219 64.9107849,18.5683555 63.6878966,18.5683555 C61.7943922,18.5683555 61.064604,19.2560245 61.064604,20.0965088 C61.064604,22.5606559 69.0922739,20.8605854 69.0922739,25.7697778 C69.0922739,28.004702 67.1790454,29.9148936 63.2342445,29.9148936 Z M80.7886086,16.3143294 L83.9444493,16.3143294 L83.9444493,29.6856706 L81.3211567,29.6856706 L74.4374791,21.5673563 L74.4374791,29.6856706 L71.2816384,29.6856706 L71.2816384,16.3143294 L73.924655,16.3143294 L80.7886086,24.4326437 L80.7886086,16.3143294 Z M97.5342885,29.6856706 L96.3114002,26.8203832 L89.9010987,26.8203832 L88.6782104,29.6856706 L85.4040257,29.6856706 L91.5579151,16.3143294 L94.7137558,16.3143294 L100.887369,29.6856706 L97.5342885,29.6856706 Z M90.9267469,24.4708475 L95.305476,24.4708475 L93.1161115,19.351534 L90.9267469,24.4708475 Z M114.556104,29.6856706 L111.124128,29.6856706 L108.461387,25.960797 L105.52251,25.960797 L105.52251,29.6856706 L102.327222,29.6856706 L102.327222,16.3143294 L108.303595,16.3143294 C111.991984,16.3143294 114.299692,18.1672152 114.299692,21.1662161 C114.299692,23.1719172 113.25432,24.6427648 111.459436,25.3877395 L114.556104,29.6856706 Z M111.064956,21.1662161 C111.064956,19.6953685 110.078755,18.8357823 108.126079,18.8357823 L105.52251,18.8357823 L105.52251,23.4966498 L108.126079,23.4966498 C110.078755,23.4966498 111.064956,22.6179617 111.064956,21.1662161 Z M126.272163,29.6856706 L121.853986,24.4326437 L119.99993,26.3046315 L119.99993,29.6856706 L116.824365,29.6856706 L116.824365,16.3143294 L119.99993,16.3143294 L119.99993,22.5606559 L126.114371,16.3143294 L129.664692,16.3143294 L123.944731,22.2741272 L130,29.6856706 L126.272163,29.6856706 Z" id="SNARK" fill="#4D4D4F"></path>
                <g id="Page-1">
                    <g id="Group-3">
                        <mask id="mask-2" fill="white">
                            <use xlink:href="#path-1"></use>
                        </mask>
                        <g id="Clip-2"></g>
                        <path d="M45.9999744,23.0000256 C45.9999744,35.7024144 35.7026189,46.0000256 22.9999744,46.0000256 C10.29733,46.0000256 -2.55555556e-05,35.7024144 -2.55555556e-05,23.0000256 C-2.55555556e-05,10.2973811 10.29733,2.55555555e-05 22.9999744,2.55555555e-05 C35.7026189,2.55555555e-05 45.9999744,10.2973811 45.9999744,23.0000256" id="Fill-1" fill="#F16621" mask="url(#mask-2)"></path>
                    </g>
                    <path d="M18.4693578,36.8813944 C16.39808,36.8813944 14.65238,35.4906611 14.1126467,33.5921389 C14.11188,33.5921389 14.1111133,33.5918833 14.1106022,33.5916278 C14.1070244,33.5808944 14.1042133,33.56965 14.10038,33.5589167 C13.7265022,32.5292833 13.8530022,31.56635 14.4566244,30.8479833 C15.0773689,30.1091722 16.09218,29.7404056 17.0423356,29.9090722 C17.9664244,30.0723722 18.6814689,30.7299167 19.0553467,31.7592944 C19.1849133,32.1163056 19.57898,32.3005611 19.9362467,32.1709944 C20.2932578,32.0414278 20.4775133,31.6471056 20.3479467,31.2898389 C20.0617244,30.5022167 19.6129689,29.8538722 19.0464022,29.3795611 C19.7387022,29.0767278 20.3387467,28.6116167 20.6679022,28.0460722 C20.8115244,27.79895 20.7279578,27.4823167 20.48058,27.3381833 C20.2339689,27.1948167 19.9168244,27.2786389 19.7732022,27.5257611 C19.4440467,28.0913056 18.59688,28.5398056 17.7811467,28.6785722 C17.61938,28.6266944 17.4527578,28.5847833 17.2820467,28.5546278 C15.8570689,28.30265 14.3347244,28.8554167 13.4037356,29.96325 C12.7303467,30.7646722 12.4354356,31.7741167 12.5371467,32.8415722 C11.35878,31.9816278 10.5926244,30.5906389 10.5926244,29.02025 C10.5926244,28.3376611 10.7385467,27.6895722 10.9987022,27.1035833 C10.0378133,26.0131278 9.45386889,24.5827833 9.45386889,23.0152056 C9.45386889,21.2132833 10.2246244,19.59255 11.4535911,18.4619722 C11.7945022,19.1744611 12.2657467,19.7691389 12.8502022,20.2270944 C11.3416578,21.9219389 11.7329133,23.9870833 12.9473133,25.2014833 C13.6084356,25.8626056 14.5215356,26.2801833 15.48958,26.2801833 C16.3717578,26.2801833 17.2994244,25.9333944 18.1241022,25.1089722 C18.3926911,24.8403833 18.3926911,24.4049167 18.1241022,24.1363278 C17.8555133,23.8679944 17.4203022,23.8679944 17.1517133,24.1363278 C16.0035022,25.2845389 14.7009356,25.0103278 13.9197022,24.2290944 C13.1384689,23.4478611 12.8640022,22.14555 14.0124689,20.9970833 C14.0362356,20.9733167 14.0569356,20.9480167 14.0763578,20.9222056 C14.6623467,21.1483722 15.2907578,21.2615833 15.9268356,21.2615833 C16.6155578,21.2615833 17.31348,21.1286944 17.9761356,20.8629167 C18.3285467,20.7213389 18.4992578,20.3208833 18.3579356,19.9684722 C18.2163578,19.6160611 17.8159022,19.4450944 17.4634911,19.5866722 C16.4589022,19.9901944 15.3073689,19.9802278 14.3830244,19.5606056 C13.5708689,19.1918389 12.9547244,18.5279056 12.58928,17.6332056 C12.5918356,17.6316722 12.5941356,17.6303944 12.5966911,17.6288611 C12.3403689,17.0467056 12.1972578,16.4034722 12.1972578,15.7267611 C12.1972578,13.3332278 13.9759244,11.35625 16.2833356,11.0426833 C16.8897689,9.89856111 18.0921578,9.11860556 19.4775244,9.11860556 C20.5503467,9.11860556 21.5135356,9.58627222 22.1749133,10.3291722 L22.1749133,14.2302278 C21.7445578,15.2956389 20.7491689,15.7855389 19.7601689,15.7855389 C18.4481467,15.7855389 17.1243689,14.9240611 17.1243689,12.9997278 C17.1243689,12.6199722 16.8164244,12.3120278 16.4366689,12.3120278 C16.0569133,12.3120278 15.7492244,12.6199722 15.7492244,12.9997278 C15.7492244,14.6030833 16.4333467,15.5752167 17.0073244,16.1085611 C17.7377022,16.7870611 18.7152022,17.1606833 19.7601689,17.1606833 C20.6142356,17.1606833 21.4723911,16.8974611 22.1749133,16.3825167 L22.1749133,34.9562944 C21.3550911,36.1200944 20.0014133,36.8813944 18.4693578,36.8813944" id="Fill-4" fill="#FFFFFF"></path>
                    <path d="M35.4072733,29.0203011 C35.4072733,30.8063789 34.4164844,32.3606678 32.9547067,33.1651567 C32.8128733,32.71819 32.5915622,32.2487344 32.2958844,31.7920567 C31.63604,30.7718789 30.7561622,30.0420122 29.7804511,29.6758011 C30.4990733,28.8976344 30.8985067,27.9684344 30.9406733,26.9610344 C30.9565178,26.5815344 30.6616067,26.2610678 30.2823622,26.2454789 C29.90414,26.22529 29.5823956,26.5240344 29.5665511,26.90379 C29.5330733,27.7059789 29.17044,28.4179567 28.4883622,29.0192789 C27.5660622,29.8329678 26.3097511,30.2030122 25.7585178,30.1554789 C25.3808067,30.1250678 25.0475622,30.4046456 25.0158733,30.7828678 C24.9839289,31.1616011 25.26504,31.4943344 25.6432622,31.5260233 C25.7061289,31.5311344 25.7720622,31.53369 25.8410622,31.53369 C26.5144511,31.53369 27.4663956,31.2812011 28.3644178,30.7775011 C28.3902289,30.7818456 28.4165511,30.7844011 28.4433844,30.7856789 C29.8939178,30.8465011 30.8134067,32.0317678 31.1412844,32.5390456 C31.52104,33.1255456 31.69354,33.6563344 31.7461844,34.0077233 C31.0845511,35.6900456 29.4474622,36.8814456 27.53054,36.8814456 C25.9984844,36.8814456 24.6450622,36.1201456 23.8249844,34.9563456 L23.8249844,26.0328567 C24.1998844,26.2493122 24.5926733,26.3893567 24.9854622,26.44839 C24.8446511,26.9597567 24.8515511,27.4800678 25.0099956,27.9817233 C25.1025067,28.27459 25.3736511,28.4619122 25.6654956,28.4619122 C25.7339844,28.4619122 25.8040067,28.45169 25.8727511,28.4299678 C26.2348733,28.3154789 26.43574,27.9293344 26.3212511,27.5669567 C26.2062511,27.2025344 26.2555733,26.8204789 26.4687067,26.4310122 C26.7774178,25.86649 27.3286511,25.4762567 27.5502178,25.4162011 C27.91694,25.3175567 28.1339067,24.9398456 28.0347511,24.5733789 C27.9358511,24.2064011 27.5578844,23.9894344 27.1916733,24.08859 C26.7771622,24.2007789 26.2323178,24.5468011 25.7751289,25.0538233 C25.2757733,25.1989789 24.8014622,25.0129344 24.4889178,24.8281678 C24.1784178,24.6444233 23.9581289,24.4241344 23.8249844,24.2501011 L23.8249844,10.3289678 C24.4866178,9.58632333 25.4498067,9.11865667 26.5226289,9.11865667 C27.90774,9.11865667 29.1103844,9.89835667 29.7165622,11.0424789 C32.0239733,11.3563011 33.8028956,13.3332789 33.8028956,15.7265567 C33.8028956,16.2714011 33.7088511,16.7937567 33.5389067,17.28059 C33.0415956,18.0536456 32.1898289,18.4137233 31.3424067,18.4137233 C30.0416289,18.4137233 28.7301178,17.5665567 28.7076289,15.6769789 C29.5777956,15.2742233 30.3260622,14.6762233 30.7446622,13.9568344 C30.9358178,13.6284456 30.8246511,13.2078011 30.4962622,13.0166456 C30.1681289,12.8257456 29.7472289,12.9369122 29.5560733,13.2650456 C28.8972511,14.3974122 26.6780067,15.1771122 25.3897511,14.7281011 C25.0309511,14.6031344 24.6391844,14.7927567 24.5142178,15.1510456 C24.3892511,15.5098456 24.5788733,15.9018678 24.9374178,16.0268344 C25.3457956,16.1689233 25.7958289,16.2351122 26.2617067,16.2351122 C26.6212733,16.2351122 26.9897844,16.19499 27.3554844,16.1206233 C27.4781511,17.4331567 28.0769178,18.26039 28.5895622,18.7367456 C29.2504289,19.3508456 30.1144622,19.7142456 31.04724,19.7778789 C31.0612956,19.79449 31.0761178,19.8113567 31.0919622,19.8269456 C31.8402289,20.5757233 31.6651733,21.4208456 31.1596844,21.9263344 C30.6541956,22.4318233 29.8090733,22.6071344 29.0605511,21.8586122 C28.7919622,21.5900233 28.3564956,21.5900233 28.0879067,21.8586122 C27.8195733,22.1269456 27.8195733,22.5621567 28.0879067,22.8310011 C28.7306289,23.4737233 29.4538511,23.7438456 30.1420622,23.74359 C30.8995289,23.74359 31.6143178,23.4162233 32.1320733,22.8989789 C32.9478067,22.08299 33.2894844,20.7776122 32.6242733,19.58749 C33.3175956,19.3638789 33.9546956,18.9542233 34.4392289,18.3664456 C35.7302956,19.50009 36.5460289,21.1617122 36.5460289,23.0152567 C36.5460289,24.5828344 35.9620844,26.0129233 35.0011956,27.1036344 C35.2616067,27.6896233 35.4072733,28.3377122 35.4072733,29.0203011" id="Fill-6" fill="#FFFFFF"></path>
                </g>
            </g>
        </g>
    </g>
</svg>