solid b'MESH-MESH-MESH-MESH-MESH-MESH-MESH-MESH-MESH-MESH-MESH-MESH-MESH-MESH-MESH-MESH'
facet normal 0.0 -400.0 0.0
  outer loop
    vertex 0.0 -20.0 0.0
    vertex 20.0 -20.0 0.0
    vertex 20.0 -20.0 20.0
  endloop
endfacet
facet normal 0.0 -400.0 0.0
  outer loop
    vertex 0.0 -20.0 0.0
    vertex 20.0 -20.0 20.0
    vertex 0.0 -20.0 20.0
  endloop
endfacet
facet normal -400.0 0.0 0.0
  outer loop
    vertex 0.0 0.0 0.0
    vertex 0.0 -20.0 0.0
    vertex 0.0 -20.0 20.0
  endloop
endfacet
facet normal -400.0 0.0 0.0
  outer loop
    vertex 0.0 0.0 0.0
    vertex 0.0 -20.0 20.0
    vertex 0.0 0.0 20.0
  endloop
endfacet
facet normal 0.0 400.0 0.0
  outer loop
    vertex 20.0 0.0 0.0
    vertex 0.0 0.0 0.0
    vertex 0.0 0.0 20.0
  endloop
endfacet
facet normal 0.0 400.0 -0.0
  outer loop
    vertex 20.0 0.0 0.0
    vertex 0.0 0.0 20.0
    vertex 20.0 0.0 20.0
  endloop
endfacet
facet normal 400.0 0.0 0.0
  outer loop
    vertex 20.0 -20.0 0.0
    vertex 20.0 0.0 0.0
    vertex 20.0 0.0 20.0
  endloop
endfacet
facet normal 400.0 0.0 0.0
  outer loop
    vertex 20.0 -20.0 0.0
    vertex 20.0 0.0 20.0
    vertex 20.0 -20.0 20.0
  endloop
endfacet
facet normal 0.0 0.0 -400.0
  outer loop
    vertex 0.0 0.0 0.0
    vertex 20.0 -20.0 0.0
    vertex 0.0 -20.0 0.0
  endloop
endfacet
facet normal 0.0 0.0 -400.0
  outer loop
    vertex 0.0 0.0 0.0
    vertex 20.0 0.0 0.0
    vertex 20.0 -20.0 0.0
  endloop
endfacet
facet normal 0.0 0.0 400.0
  outer loop
    vertex 20.0 -20.0 20.0
    vertex 0.0 0.0 20.0
    vertex 0.0 -20.0 20.0
  endloop
endfacet
facet normal 0.0 0.0 400.0
  outer loop
    vertex 20.0 0.0 20.0
    vertex 0.0 0.0 20.0
    vertex 20.0 -20.0 20.0
  endloop
endfacet
endsolid b'MESH-MESH-MESH-MESH-MESH-MESH-MESH-MESH-MESH-MESH-MESH-MESH-MESH-MESH-MESH-MESH'
