ply
format ascii 1.0
comment File exported by Artec Group 3D Scanning Solutions
comment www.artec-group.com
element vertex 200
property float x
property float y
property float z
element face 400
property list uchar int vertex_indices
end_header
17.9088 -130.9995 7.4178
17.775 -130.9388 7.5781
17.8176 -130.7807 7.3022
17.9987 -130.9179 7.6017
18.1127 -130.9751 7.6042
18.2449 -130.7671 7.5983
18.213 -130.7707 7.2744
18.2035 -130.5682 7.3475
18.0273 -130.6557 7.3285
18.3856 -130.973 7.2798
18.1262 -130.7683 7.006
18.3487 -131.1095 7.4762
18.0001 -131.2184 7.5334
153.6905 146.3953 -190.8631
154.2155 146.52 -191.5656
153.0415 146.7541 -191.868
17.7335 -131.0356 7.2555
-40.3962 158.5624 -199.4113
-40.042 158.7805 -200.2798
-40.6365 158.994 -201.1682
17.7857 -130.8587 7.121
18.5187 -130.6035 7.6524
17.879 -131.0265 7.8695
-41.6262 158.6958 -199.7175
18.2835 -130.8466 7.9094
-69.3567 161.6183 -212.428
-69.7259 161.7329 -213.4854
-70.0614 161.6444 -212.5665
-93.3461 -28.4614 152.5762
-93.4827 -28.3092 151.9908
-93.4691 -28.6242 151.9355
16.7837 50.3716 171.5047
16.694 50.116 171.3112
16.4061 50.1857 171.4494
49.209 -114.9556 115.8484
49.4484 -114.4446 115.0294
49.4479 -114.5139 115.6264
-88.7894 -74.5295 154.2959
-88.9557 -74.9889 153.6022
-88.6955 -75.1811 154.183
-89.0704 -74.0263 153.8053
-34.7495 41.9922 173.5518
-35.0295 42.14 173.2184
-35.0364 42.0851 173.5132
0.5015 54.0907 164.7746
1.0097 54.5477 164.8654
0.6631 54.0925 164.4734
-34.9579 41.8117 173.162
-34.8397 41.7324 173.3819
-93.2876 -28.2237 152.924
15.9835 49.8656 171.3522
15.9405 49.7597 171.1122
15.8295 49.7565 171.3298
-93.4137 -27.7901 152.534
74.5883 -76.5236 130.7581
74.4829 -76.7753 130.1022
74.523 -75.9594 130.5515
-93.184 -27.744 153.6201
1.5486 54.7045 165.2088
1.3489 54.7486 164.9077
1.2133 54.645 165.1915
49.8509 -114.0287 116.6343
49.8763 -113.9288 116.0431
50.2417 -113.4257 116.1392
1.5806 54.8352 164.9277
50.0264 159.9687 -208.2067
50.4932 160.129 -209.1265
49.3133 160.1891 -208.9006
-93.2873 -27.4925 153.3576
82.3025 -24.2964 154.7489
82.5135 -24.2565 154.1508
82.3563 -23.984 154.6974
49.4385 -114.6443 116.5173
49.7261 -114.1909 115.9938
0.9194 54.5228 165.1638
-93.401 -27.5118 152.7424
50.0377 -113.6835 115.7849
16.7882 56.4487 161.0686
17.4682 56.6908 160.2715
16.8939 56.8422 160.4799
23.3614 53.1821 162.6416
23.7012 53.2885 162.3669
22.7485 53.2482 162.5527
17.3258 56.1772 160.9142
1.5463 54.7652 164.61
1.2552 54.5223 164.5612
82.455 -23.6503 154.4476
74.4529 -74.7673 131.065
74.4291 -74.9909 130.1111
74.3528 -74.5729 130.1833
33.7683 52.5062 157.2496
33.3296 52.3594 157.8242
33.8835 52.0908 158.0928
216.3265 120.3951 -209.6902
215.9451 120.5667 -209.1317
216.3195 120.3841 -208.8365
34.4795 52.0173 157.7872
34.4231 51.7967 158.1938
74.3579 -74.426 131.1232
16.2635 49.8251 170.7413
16.3171 49.9369 171.2171
215.1715 119.3641 -197.1658
215.7295 119.2431 -198.09
214.6466 119.7884 -198.0157
33.3653 52.5016 157.5453
16.5008 56.5222 161.1853
0.6036 54.3143 165.1207
58.2711 34.4531 152.7365
58.552 34.4154 152.1261
58.3434 34.7398 152.179
-36.3165 42.0667 173.1794
-36.4083 41.687 174.0246
-36.0288 41.9479 173.4689
-36.0068 42.0485 173.1824
-88.5519 -74.0931 154.987
-88.3371 -74.8429 155.1929
58.2307 34.2796 153.1628
58.0438 34.7033 152.937
64.4547 11.6581 174.4368
64.5302 11.2808 174.9812
64.78 11.0809 174.951
64.8517 11.2191 174.3674
32.7988 52.7322 157.2697
32.7401 52.3659 158.1181
-88.6784 -73.8929 154.7151
-5.8477 48.5555 163.9742
-5.3485 48.581 163.3793
-5.5544 48.5554 163.3707
82.2732 -23.7197 155.1548
64.2682 11.4096 175.3031
-34.586 41.894 173.7935
-35.0587 41.9837 173.7997
-88.8965 -73.5635 154.4666
-35.3509 42.1225 173.2088
22.7062 53.0422 163.213
23.3166 52.9786 163.2142
74.0107 -73.4905 131.2812
74.152 -73.9174 130.2948
22.4176 53.1923 162.6241
57.68 35.106 153.1443
57.8461 35.0786 152.8381
82.4998 -23.3742 154.6109
82.3915 -23.3933 154.91
24.2695 53.064 162.6393
24.3326 53.323 162.0768
16.2814 56.8733 160.711
16.2469 56.7349 160.9906
58.0091 35.1617 152.2467
63.7869 11.8645 175.3736
64.1671 11.643 175.0376
63.5863 12.2473 175.1324
16.6441 57.0832 160.146
16.3291 57.0769 160.216
0.9366 44.3206 170.0686
0.7399 44.8452 169.8524
0.5232 44.1436 170.0289
16.4581 49.918 171.0663
0.3314 44.5539 169.8848
0.1864 44.0908 170.0128
15.9885 56.9764 160.4185
-93.4477 -26.8754 152.8537
-93.6078 -26.4308 152.4651
82.5324 -15.2003 134.4198
82.4711 -15.4002 133.774
82.3212 -14.8638 133.5609
-88.812 -73.3529 154.9156
82.3908 -14.5333 134.5347
74.6846 -77.1887 130.6427
-0.3922 44.2508 170.0291
-0.1446 44.0372 170.0627
32.5169 52.8347 157.2821
32.449 52.5612 157.8419
-89.2831 -72.8285 154.6519
0.2356 45.2438 169.7921
-12.3128 -139.5351 114.5293
-11.6802 -139.5591 114.7883
-12.8578 -139.5527 115.1245
215.9602 118.7822 -196.3383
15.3179 56.8235 160.6826
15.2973 56.6934 161.2686
15.6381 56.8034 160.9902
57.6713 35.5594 152.4348
57.2288 35.5085 153.5108
-88.9747 -73.0245 155.1669
-0.5259 44.818 169.9881
-0.0496 45.3364 169.8004
-5.159 48.7629 163.72
-93.3839 -26.3829 153.5513
-93.4994 -26.5481 152.9104
216.8103 120.1572 -209.2075
-34.5638 41.5595 173.8289
19.2742 51.1955 162.5128
19.3891 51.2124 162.2135
19.2098 51.1254 162.1945
-36.9283 42.1065 173.3513
-37.3189 41.8073 173.9388
-36.6223 41.985 173.4633
19.3999 51.4655 162.563
19.6187 51.4077 162.2527
15.0713 56.714 160.963
3 0 1 2
3 1 0 3
3 3 0 4
3 3 4 5
3 5 4 6
3 5 6 7
3 7 6 8
3 6 4 9
3 8 6 10
3 10 6 9
3 9 4 11
3 11 4 12
3 12 4 0
3 13 14 15
3 0 2 16
3 12 0 16
3 17 18 19
3 16 2 20
3 5 7 21
3 3 5 22
3 19 23 17
3 1 3 22
3 24 5 21
3 22 5 24
3 25 26 27
3 28 29 30
3 31 32 33
3 34 35 36
3 37 38 39
3 37 40 38
3 41 42 43
3 44 45 46
3 41 47 42
3 41 48 47
3 29 28 49
3 50 51 52
3 49 53 29
3 54 55 56
3 57 53 49
3 58 59 60
3 61 62 63
3 58 64 59
3 65 66 67
3 68 53 57
3 69 70 71
3 72 36 73
3 45 74 60
3 68 75 53
3 60 59 45
3 62 73 76
3 77 78 79
3 80 81 82
3 83 78 77
3 59 84 85
3 86 71 70
3 87 88 89
3 90 91 92
3 93 94 95
3 92 96 90
3 76 63 62
3 97 96 92
3 84 59 64
3 89 98 87
3 99 51 100
3 101 102 103
3 91 90 104
3 59 85 45
3 77 79 105
3 74 45 106
3 107 108 109
3 110 111 112
3 112 113 110
3 114 37 115
3 116 107 117
3 118 119 120
3 120 121 118
3 122 123 91
3 114 124 37
3 125 126 127
3 128 71 86
3 119 118 129
3 109 117 107
3 130 41 131
3 132 37 124
3 131 41 43
3 133 131 43
3 43 42 133
3 134 80 82
3 135 80 134
3 136 98 137
3 112 133 113
3 91 104 122
3 131 133 112
3 134 82 138
3 139 117 140
3 141 142 128
3 128 86 141
3 143 144 81
3 145 146 105
3 105 79 145
3 72 34 36
3 106 45 44
3 117 109 147
3 148 149 150
3 40 37 132
3 145 151 152
3 79 151 145
3 153 154 155
3 117 147 140
3 156 99 100
3 155 157 158
3 145 152 159
3 160 161 75
3 162 163 164
3 118 149 129
3 165 132 124
3 154 157 155
3 162 164 166
3 115 37 39
3 167 55 54
3 168 169 158
3 170 171 123
3 165 172 132
3 168 158 157
3 157 173 168
3 174 175 176
3 177 102 101
3 178 179 180
3 139 181 182
3 183 172 165
3 173 184 168
3 80 143 81
3 173 185 184
3 126 125 186
3 187 188 160
3 93 95 189
3 190 48 130
3 191 192 193
3 130 48 41
3 194 195 196
3 33 100 50
3 197 192 191
3 197 198 192
3 179 178 199
3 50 100 51
3 200 171 201
3 202 203 176
3 139 140 181
3 199 178 204
3 25 205 26
3 206 132 172
3 198 207 208
3 161 160 188
3 34 209 35
3 111 110 196
3 201 170 210
3 172 211 206
3 166 212 213
3 214 193 192
3 215 205 25
3 142 141 216
3 188 217 161
3 218 44 219
3 203 202 220
3 192 208 214
3 198 208 192
3 166 164 221
3 220 222 203
3 223 204 178
3 95 224 189
3 221 212 166
3 225 226 227
3 228 188 187
3 216 141 229
3 230 49 28
3 231 222 220
3 228 232 188
3 195 194 233
3 182 181 234
3 232 228 235
3 202 176 236
3 212 221 237
3 238 239 136
3 34 240 209
3 217 188 232
3 69 241 70
3 242 243 244
3 245 246 247
3 136 137 238
3 248 249 250
3 33 32 100
3 216 229 251
3 44 46 219
3 252 212 253
3 185 254 184
3 249 255 250
3 244 256 257
3 258 255 249
3 259 150 260
3 252 213 212
3 100 32 156
3 197 256 198
3 261 256 197
3 259 260 262
3 263 264 265
3 266 184 254
3 267 268 102
3 261 257 256
3 102 177 267
3 269 270 271
3 272 270 269
3 273 274 249
3 167 275 55
3 276 277 172
3 207 198 256
3 258 249 274
3 263 233 264
3 256 278 207
3 266 254 279
3 260 150 280
3 281 282 283
3 283 284 281
3 246 245 285
3 244 278 256
3 286 279 254
3 287 273 288
3 277 276 289
3 274 273 287
3 237 253 212
3 290 284 283
3 291 244 257
3 291 242 244
3 69 292 241
3 284 290 293
3 294 295 296
3 297 249 248
3 227 226 298
3 249 297 273
3 251 299 300
3 301 240 34
3 252 253 302
3 264 233 194
3 293 303 284
3 300 299 304
3 288 297 305
3 273 297 288
3 306 252 307
3 308 204 309
3 199 204 308
3 310 311 312
3 313 314 289
3 315 304 299
3 316 317 318
3 308 309 258
3 302 307 252
3 319 314 313
3 320 275 167
3 234 321 322
3 310 312 323
3 318 324 316
3 325 326 293
3 218 106 44
3 327 265 328
3 309 223 329
3 204 223 309
3 318 330 324
3 286 331 279
3 326 332 293
3 255 258 309
3 309 329 255
3 333 306 307
3 334 335 323
3 319 336 314
3 235 337 232
3 338 339 340
3 96 341 342
3 343 344 345
3 322 321 346
3 232 337 217
3 333 307 347
3 348 285 245
3 322 346 349
3 350 351 352
3 265 264 328
3 39 38 353
3 171 170 201
3 354 355 356
3 39 353 357
3 343 358 344
3 337 235 359
3 303 293 332
3 349 360 322
3 361 362 359
3 363 358 343
3 364 363 343
3 365 366 367
3 336 319 368
3 242 369 370
3 304 315 371
3 372 373 374
3 337 359 375
3 243 242 370
3 331 376 377
3 370 378 243
3 372 374 66
3 304 371 379
3 201 210 380
3 287 381 382
3 383 384 326
3 385 143 80
3 386 387 377
3 388 389 390
3 391 392 393
3 287 288 381
3 362 394 359
3 366 365 352
3 326 395 332
3 386 377 376
3 376 396 386
3 397 349 398
3 360 349 397
3 399 367 366
3 390 400 388
3 366 401 399
3 382 381 402
3 403 404 405
3 406 379 371
3 326 384 395
3 28 30 407
3 403 405 241
3 336 368 408
3 409 410 411
3 411 380 409
3 394 362 412
3 383 413 384
3 414 415 333
3 333 347 414
3 368 416 408
3 417 418 419
3 96 420 341
3 421 394 412
3 412 422 421
3 28 407 423
3 387 386 424
3 423 425 28
3 305 381 288
3 294 426 295
3 427 413 383
3 417 419 428
3 396 424 386
3 429 415 430
3 427 431 413
3 387 432 433
3 424 432 387
3 381 305 434
3 424 435 432
3 413 436 384
3 418 417 437
3 402 434 438
3 381 434 402
3 439 320 167
3 397 440 441
3 397 398 440
3 436 413 431
3 442 402 443
3 444 445 416
3 406 371 446
3 447 448 449
3 450 127 451
3 125 127 450
3 442 443 452
3 415 414 430
3 431 427 453
3 454 455 406
3 456 451 457
3 406 446 454
3 458 422 412
3 450 451 456
3 431 459 436
3 402 438 443
3 446 460 461
3 462 440 398
3 371 460 446
3 463 464 465
3 458 466 422
3 467 466 458
3 452 443 468
3 469 39 357
3 409 470 410
3 446 471 454
3 429 430 472
3 473 474 467
3 364 475 363
3 476 96 97
3 472 430 477
3 478 479 480
3 441 440 481
3 45 85 482
3 388 483 389
3 456 457 484
