#define im_width 64
#define im_height 42
static char im_bits[] = {
0xc4,0xd3,0xff,0xff,0xff,0xfd,0xff,0x05,0xbf,0xee,0xff,0xff,0xff,0xfe,0xff,
0x7f,0xfe,0x7f,0xff,0xff,0xef,0x6f,0x3f,0x99,0xf7,0xfd,0xdf,0x3f,0xbf,0x6c,
0x67,0x01,0xe1,0xfe,0xfe,0xf9,0xf7,0xd7,0x7f,0x17,0xfd,0xfe,0x77,0xb6,0x98,
0x7f,0x01,0x09,0x98,0xfd,0xf7,0xfc,0x57,0xbf,0x71,0x00,0x24,0xb2,0xfe,0xbd,
0xfb,0x2c,0x44,0x10,0x00,0xbb,0xbb,0xdf,0xe3,0xb7,0x20,0x00,0x92,0xa8,0xff,
0xed,0x74,0x42,0x55,0x02,0x20,0xdc,0xe2,0xf7,0x14,0x26,0x11,0x01,0xe0,0x32,
0x3e,0x75,0xd3,0x83,0x41,0x00,0xc0,0x13,0x16,0x72,0x3f,0x95,0x00,0x80,0x90,
0xac,0x81,0xea,0xa6,0x1b,0x00,0xc0,0x00,0x90,0x4c,0x48,0x24,0x00,0x00,0xf0,
0x00,0x46,0x22,0x24,0x00,0x00,0x00,0xfc,0x00,0x04,0x04,0x04,0x00,0x00,0x40,
0xff,0x00,0x00,0x10,0x00,0x00,0x00,0x80,0xff,0x00,0x00,0x00,0x00,0x00,0x00,
0xf8,0xff,0x00,0x00,0x00,0x00,0x00,0x00,0xfe,0xff,0x0f,0x00,0x00,0x00,0x00,
0xc0,0xff,0xff,0x4f,0x00,0x00,0x00,0x00,0xe0,0xff,0xff,0xff,0x33,0x00,0x00,
0x00,0xf0,0xff,0xff,0xff,0xff,0x04,0x00,0x00,0xfc,0xff,0xff,0xf8,0xff,0x2f,
0x60,0xe1,0xff,0xff,0xff,0x03,0xff,0xff,0xff,0xe3,0xff,0xff,0xad,0x17,0x85,
0xff,0xff,0xff,0x7f,0x1f,0x2e,0xdf,0xff,0xc6,0x67,0x00,0x14,0xe9,0x50,0xff,
0xff,0x7f,0xfd,0xc1,0x2a,0x29,0xea,0xff,0xff,0x4f,0xfe,0x33,0xcf,0x7d,0x3c,
0xff,0xff,0xc2,0xff,0x97,0xc7,0xfc,0x7e,0xb7,0xdd,0xf9,0xff,0xff,0xbc,0xf8,
0xfe,0xa7,0x6f,0xff,0xff,0xef,0xfb,0x25,0xfe,0xfc,0xf7,0xff,0xff,0x3f,0xfe,
0xfd,0xfb,0xfc,0xfd,0xff,0xff,0x7f,0xfe,0xff,0xee,0x7f,0xff,0xff,0xff,0xff,
0xbf,0xff,0xff,0x5f,0xff,0xff,0xff,0xff,0xbf,0xb6,0xf3,0xff,0xff,0xff,0xff,
0xff,0xff,0xff,0xff,0xff,0xff,0xff,0xff,0xff,0xff,0xf7,0xff,0xff,0xff,0xff,
0xff,0xff,0xdf,0xff,0xff,0xff,0xff,0xff,0xff,0xff,0xf7,0xbf,0x7f,0xff,0xff,
0xff,0xff,0xff,0x77,0x7f,0xfe
};
