<svg width="561" height="110" viewBox="0 0 561 110" fill="none" xmlns="http://www.w3.org/2000/svg">
<rect x="12" y="19" width="203.043" height="59.3553" fill="#D9D9D9"/>
<rect x="243.435" y="19" width="304.565" height="59.3553" fill="#D9D9D9"/>
<rect x="12" y="19" width="203" height="59" fill="#4A9D9D"/>
<rect x="243" y="19" width="305" height="59" fill="#5F7777"/>
<path d="M344.915 48.5H343.77C343.702 48.1707 343.584 47.8814 343.415 47.6321C343.248 47.3828 343.045 47.1735 342.805 47.0043C342.568 46.8319 342.305 46.7027 342.016 46.6165C341.727 46.5303 341.425 46.4872 341.111 46.4872C340.539 46.4872 340.02 46.6319 339.555 46.9212C339.094 47.2105 338.726 47.6367 338.452 48.1999C338.181 48.7631 338.046 49.4541 338.046 50.2727C338.046 51.0914 338.181 51.7823 338.452 52.3455C338.726 52.9087 339.094 53.335 339.555 53.6243C340.02 53.9136 340.539 54.0582 341.111 54.0582C341.425 54.0582 341.727 54.0152 342.016 53.929C342.305 53.8428 342.568 53.7151 342.805 53.5458C343.045 53.3735 343.248 53.1626 343.415 52.9134C343.584 52.661 343.702 52.3717 343.77 52.0455H344.915C344.829 52.5286 344.672 52.9611 344.444 53.3427C344.216 53.7243 343.933 54.049 343.595 54.3168C343.256 54.5814 342.876 54.783 342.454 54.9215C342.036 55.06 341.588 55.1293 341.111 55.1293C340.305 55.1293 339.588 54.9323 338.96 54.5384C338.332 54.1444 337.838 53.5843 337.478 52.858C337.118 52.1316 336.938 51.2699 336.938 50.2727C336.938 49.2756 337.118 48.4138 337.478 47.6875C337.838 46.9612 338.332 46.401 338.96 46.0071C339.588 45.6132 340.305 45.4162 341.111 45.4162C341.588 45.4162 342.036 45.4854 342.454 45.6239C342.876 45.7624 343.256 45.9656 343.595 46.2333C343.933 46.498 344.216 46.8211 344.444 47.2028C344.672 47.5813 344.829 48.0137 344.915 48.5ZM349.498 55.1477C348.858 55.1477 348.296 54.9954 347.813 54.6907C347.333 54.386 346.957 53.9598 346.687 53.4119C346.419 52.8641 346.285 52.224 346.285 51.4915C346.285 50.7528 346.419 50.1081 346.687 49.5572C346.957 49.0063 347.333 48.5785 347.813 48.2738C348.296 47.9691 348.858 47.8168 349.498 47.8168C350.138 47.8168 350.698 47.9691 351.178 48.2738C351.662 48.5785 352.037 49.0063 352.305 49.5572C352.576 50.1081 352.711 50.7528 352.711 51.4915C352.711 52.224 352.576 52.8641 352.305 53.4119C352.037 53.9598 351.662 54.386 351.178 54.6907C350.698 54.9954 350.138 55.1477 349.498 55.1477ZM349.498 54.169C349.984 54.169 350.384 54.0444 350.698 53.7951C351.012 53.5458 351.245 53.218 351.395 52.8118C351.546 52.4055 351.622 51.9654 351.622 51.4915C351.622 51.0175 351.546 50.5759 351.395 50.1665C351.245 49.7572 351.012 49.4264 350.698 49.174C350.384 48.9216 349.984 48.7955 349.498 48.7955C349.012 48.7955 348.612 48.9216 348.298 49.174C347.984 49.4264 347.751 49.7572 347.601 50.1665C347.45 50.5759 347.374 51.0175 347.374 51.4915C347.374 51.9654 347.45 52.4055 347.601 52.8118C347.751 53.218 347.984 53.5458 348.298 53.7951C348.612 54.0444 349.012 54.169 349.498 54.169ZM354.374 55V47.9091H355.427V49.017H355.519C355.667 48.6385 355.905 48.3446 356.235 48.1353C356.564 47.9229 356.959 47.8168 357.421 47.8168C357.889 47.8168 358.278 47.9229 358.589 48.1353C358.903 48.3446 359.148 48.6385 359.323 49.017H359.397C359.578 48.6508 359.851 48.36 360.214 48.1445C360.577 47.926 361.013 47.8168 361.52 47.8168C362.154 47.8168 362.673 48.0153 363.076 48.4123C363.479 48.8062 363.681 49.4202 363.681 50.2543V55H362.591V50.2543C362.591 49.7311 362.448 49.3571 362.162 49.1325C361.876 48.9078 361.539 48.7955 361.151 48.7955C360.653 48.7955 360.266 48.9463 359.992 49.2479C359.718 49.5464 359.581 49.925 359.581 50.3835V55H358.474V50.1435C358.474 49.7403 358.343 49.4156 358.081 49.1694C357.82 48.9201 357.483 48.7955 357.07 48.7955C356.787 48.7955 356.522 48.8709 356.276 49.0217C356.033 49.1725 355.836 49.3817 355.685 49.6495C355.537 49.9142 355.464 50.2204 355.464 50.5682V55H354.374ZM365.673 57.6591V47.9091H366.725V49.0355H366.855C366.935 48.9124 367.046 48.7554 367.187 48.5646C367.332 48.3707 367.538 48.1984 367.806 48.0476C368.077 47.8937 368.443 47.8168 368.904 47.8168C369.502 47.8168 370.028 47.966 370.483 48.2646C370.939 48.5631 371.294 48.9863 371.55 49.5341C371.805 50.0819 371.933 50.7282 371.933 51.473C371.933 52.224 371.805 52.8749 371.55 53.4258C371.294 53.9736 370.94 54.3983 370.488 54.6999C370.036 54.9985 369.514 55.1477 368.923 55.1477C368.467 55.1477 368.103 55.0723 367.829 54.9215C367.555 54.7676 367.344 54.5937 367.196 54.3999C367.049 54.2029 366.935 54.0398 366.855 53.9105H366.762V57.6591H365.673ZM366.744 51.4545C366.744 51.9901 366.822 52.4625 366.979 52.8718C367.136 53.2781 367.366 53.5966 367.667 53.8274C367.969 54.0552 368.338 54.169 368.775 54.169C369.231 54.169 369.611 54.049 369.915 53.8089C370.223 53.5658 370.454 53.2396 370.608 52.8303C370.765 52.4179 370.843 51.9593 370.843 51.4545C370.843 50.956 370.766 50.5066 370.613 50.1065C370.462 49.7034 370.232 49.3848 369.925 49.1509C369.62 48.9139 369.237 48.7955 368.775 48.7955C368.332 48.7955 367.96 48.9078 367.658 49.1325C367.356 49.354 367.129 49.6649 366.975 50.065C366.821 50.462 366.744 50.9252 366.744 51.4545ZM373.595 55V47.9091H374.647V48.9801H374.721C374.85 48.6293 375.084 48.3446 375.423 48.1261C375.761 47.9076 376.143 47.7983 376.568 47.7983C376.648 47.7983 376.748 47.7998 376.868 47.8029C376.988 47.806 377.079 47.8106 377.14 47.8168V48.9247C377.103 48.9155 377.019 48.9016 376.886 48.8832C376.757 48.8616 376.62 48.8509 376.475 48.8509C376.131 48.8509 375.823 48.9232 375.552 49.0678C375.284 49.2094 375.072 49.4064 374.915 49.6587C374.761 49.908 374.684 50.1927 374.684 50.5128V55H373.595ZM381.189 55.1477C380.506 55.1477 379.916 54.9969 379.421 54.6953C378.928 54.3906 378.548 53.9659 378.281 53.4212C378.016 52.8733 377.884 52.2363 377.884 51.5099C377.884 50.7836 378.016 50.1435 378.281 49.5895C378.548 49.0324 378.921 48.5985 379.398 48.2876C379.878 47.9737 380.438 47.8168 381.078 47.8168C381.447 47.8168 381.812 47.8783 382.172 48.0014C382.532 48.1245 382.86 48.3246 383.156 48.6016C383.451 48.8755 383.686 49.2386 383.862 49.6911C384.037 50.1435 384.125 50.7005 384.125 51.3622V51.8239H378.659V50.8821H383.017C383.017 50.482 382.937 50.125 382.777 49.8111C382.62 49.4972 382.395 49.2494 382.103 49.0678C381.814 48.8862 381.472 48.7955 381.078 48.7955C380.644 48.7955 380.269 48.9032 379.952 49.1186C379.638 49.331 379.396 49.608 379.227 49.9496C379.058 50.2912 378.973 50.6574 378.973 51.0483V51.6761C378.973 52.2116 379.065 52.6656 379.25 53.038C379.438 53.4073 379.698 53.6889 380.03 53.8828C380.363 54.0736 380.749 54.169 381.189 54.169C381.475 54.169 381.734 54.129 381.964 54.049C382.198 53.9659 382.4 53.8428 382.569 53.6797C382.739 53.5135 382.869 53.3073 382.962 53.0611L384.014 53.3565C383.903 53.7135 383.717 54.0275 383.456 54.2983C383.194 54.5661 382.871 54.7753 382.486 54.9261C382.101 55.0739 381.669 55.1477 381.189 55.1477ZM390.805 49.4972L389.826 49.7741C389.765 49.611 389.674 49.4525 389.554 49.2987C389.437 49.1417 389.277 49.0124 389.074 48.9109C388.871 48.8093 388.611 48.7585 388.294 48.7585C387.86 48.7585 387.498 48.8585 387.209 49.0586C386.923 49.2556 386.779 49.5064 386.779 49.8111C386.779 50.0819 386.878 50.2958 387.075 50.4528C387.272 50.6097 387.58 50.7405 387.998 50.8452L389.051 51.1037C389.685 51.2576 390.157 51.493 390.468 51.81C390.779 52.1239 390.934 52.5286 390.934 53.0241C390.934 53.4304 390.817 53.7936 390.583 54.1136C390.353 54.4337 390.029 54.6861 389.614 54.8707C389.199 55.0554 388.715 55.1477 388.164 55.1477C387.441 55.1477 386.843 54.9908 386.369 54.6768C385.895 54.3629 385.595 53.9044 385.468 53.3011L386.502 53.0426C386.601 53.4242 386.787 53.7105 387.061 53.9013C387.338 54.0921 387.7 54.1875 388.146 54.1875C388.654 54.1875 389.057 54.0798 389.355 53.8643C389.657 53.6458 389.808 53.3842 389.808 53.0795C389.808 52.8333 389.722 52.6271 389.549 52.4609C389.377 52.2917 389.112 52.1655 388.755 52.0824L387.574 51.8054C386.924 51.6515 386.447 51.413 386.142 51.0898C385.841 50.7636 385.69 50.3558 385.69 49.8665C385.69 49.4664 385.802 49.1125 386.027 48.8047C386.255 48.4969 386.564 48.2553 386.955 48.0799C387.349 47.9045 387.795 47.8168 388.294 47.8168C388.995 47.8168 389.546 47.9706 389.946 48.2784C390.35 48.5862 390.636 48.9924 390.805 49.4972ZM397.597 49.4972L396.618 49.7741C396.557 49.611 396.466 49.4525 396.346 49.2987C396.229 49.1417 396.069 49.0124 395.866 48.9109C395.663 48.8093 395.403 48.7585 395.086 48.7585C394.652 48.7585 394.29 48.8585 394.001 49.0586C393.715 49.2556 393.571 49.5064 393.571 49.8111C393.571 50.0819 393.67 50.2958 393.867 50.4528C394.064 50.6097 394.372 50.7405 394.79 50.8452L395.843 51.1037C396.477 51.2576 396.949 51.493 397.26 51.81C397.571 52.1239 397.726 52.5286 397.726 53.0241C397.726 53.4304 397.609 53.7936 397.375 54.1136C397.145 54.4337 396.821 54.6861 396.406 54.8707C395.991 55.0554 395.507 55.1477 394.956 55.1477C394.233 55.1477 393.635 54.9908 393.161 54.6768C392.687 54.3629 392.387 53.9044 392.26 53.3011L393.294 53.0426C393.393 53.4242 393.579 53.7105 393.853 53.9013C394.13 54.0921 394.492 54.1875 394.938 54.1875C395.446 54.1875 395.849 54.0798 396.147 53.8643C396.449 53.6458 396.6 53.3842 396.6 53.0795C396.6 52.8333 396.514 52.6271 396.341 52.4609C396.169 52.2917 395.904 52.1655 395.547 52.0824L394.366 51.8054C393.716 51.6515 393.239 51.413 392.934 51.0898C392.633 50.7636 392.482 50.3558 392.482 49.8665C392.482 49.4664 392.594 49.1125 392.819 48.8047C393.047 48.4969 393.356 48.2553 393.747 48.0799C394.141 47.9045 394.587 47.8168 395.086 47.8168C395.787 47.8168 396.338 47.9706 396.738 48.2784C397.142 48.5862 397.428 48.9924 397.597 49.4972ZM402.339 55.1477C401.656 55.1477 401.067 54.9969 400.571 54.6953C400.079 54.3906 399.699 53.9659 399.431 53.4212C399.166 52.8733 399.034 52.2363 399.034 51.5099C399.034 50.7836 399.166 50.1435 399.431 49.5895C399.699 49.0324 400.071 48.5985 400.548 48.2876C401.028 47.9737 401.588 47.8168 402.229 47.8168C402.598 47.8168 402.963 47.8783 403.323 48.0014C403.683 48.1245 404.01 48.3246 404.306 48.6016C404.601 48.8755 404.837 49.2386 405.012 49.6911C405.188 50.1435 405.275 50.7005 405.275 51.3622V51.8239H399.809V50.8821H404.167C404.167 50.482 404.087 50.125 403.927 49.8111C403.77 49.4972 403.546 49.2494 403.253 49.0678C402.964 48.8862 402.622 48.7955 402.229 48.7955C401.795 48.7955 401.419 48.9032 401.102 49.1186C400.788 49.331 400.547 49.608 400.377 49.9496C400.208 50.2912 400.123 50.6574 400.123 51.0483V51.6761C400.123 52.2116 400.216 52.6656 400.4 53.038C400.588 53.4073 400.848 53.6889 401.181 53.8828C401.513 54.0736 401.899 54.169 402.339 54.169C402.626 54.169 402.884 54.129 403.115 54.049C403.349 53.9659 403.55 53.8428 403.72 53.6797C403.889 53.5135 404.02 53.3073 404.112 53.0611L405.165 53.3565C405.054 53.7135 404.868 54.0275 404.606 54.2983C404.344 54.5661 404.021 54.7753 403.637 54.9261C403.252 55.0739 402.819 55.1477 402.339 55.1477ZM409.61 55.1477C409.019 55.1477 408.498 54.9985 408.045 54.6999C407.593 54.3983 407.239 53.9736 406.983 53.4258C406.728 52.8749 406.6 52.224 406.6 51.473C406.6 50.7282 406.728 50.0819 406.983 49.5341C407.239 48.9863 407.594 48.5631 408.05 48.2646C408.505 47.966 409.032 47.8168 409.629 47.8168C410.09 47.8168 410.455 47.8937 410.723 48.0476C410.994 48.1984 411.2 48.3707 411.341 48.5646C411.486 48.7554 411.598 48.9124 411.678 49.0355H411.771V45.5455H412.86V55H411.808V53.9105H411.678C411.598 54.0398 411.485 54.2029 411.337 54.3999C411.189 54.5937 410.978 54.7676 410.704 54.9215C410.43 55.0723 410.066 55.1477 409.61 55.1477ZM409.758 54.169C410.195 54.169 410.564 54.0552 410.866 53.8274C411.168 53.5966 411.397 53.2781 411.554 52.8718C411.711 52.4625 411.789 51.9901 411.789 51.4545C411.789 50.9252 411.712 50.462 411.558 50.065C411.405 49.6649 411.177 49.354 410.875 49.1325C410.574 48.9078 410.201 48.7955 409.758 48.7955C409.296 48.7955 408.912 48.9139 408.604 49.1509C408.299 49.3848 408.07 49.7034 407.916 50.1065C407.765 50.5066 407.69 50.956 407.69 51.4545C407.69 51.9593 407.767 52.4179 407.921 52.8303C408.078 53.2396 408.308 53.5658 408.613 53.8089C408.921 54.049 409.302 54.169 409.758 54.169ZM421.544 55.1477C420.879 55.1477 420.307 54.9908 419.827 54.6768C419.346 54.3629 418.977 53.9305 418.719 53.3796C418.46 52.8287 418.331 52.1993 418.331 51.4915C418.331 50.7713 418.463 50.1358 418.728 49.5849C418.996 49.0309 419.368 48.5985 419.845 48.2876C420.325 47.9737 420.885 47.8168 421.525 47.8168C422.024 47.8168 422.473 47.9091 422.873 48.0938C423.273 48.2784 423.601 48.5369 423.857 48.8693C424.112 49.2017 424.271 49.5895 424.332 50.0327H423.243C423.16 49.7095 422.975 49.4233 422.689 49.174C422.406 48.9216 422.024 48.7955 421.544 48.7955C421.119 48.7955 420.747 48.9062 420.427 49.1278C420.11 49.3464 419.862 49.6557 419.683 50.0558C419.508 50.4528 419.42 50.919 419.42 51.4545C419.42 52.0024 419.506 52.4794 419.679 52.8857C419.854 53.2919 420.1 53.6074 420.417 53.832C420.738 54.0567 421.113 54.169 421.544 54.169C421.827 54.169 422.084 54.1198 422.315 54.0213C422.546 53.9228 422.741 53.7812 422.901 53.5966C423.061 53.4119 423.175 53.1903 423.243 52.9318H424.332C424.271 53.3504 424.118 53.7274 423.875 54.0629C423.635 54.3952 423.317 54.6599 422.92 54.8569C422.526 55.0508 422.067 55.1477 421.544 55.1477ZM427.014 50.7344V55H425.925V45.5455H427.014V49.017H427.107C427.273 48.6508 427.522 48.36 427.855 48.1445C428.19 47.926 428.636 47.8168 429.193 47.8168C429.677 47.8168 430.1 47.9137 430.463 48.1076C430.826 48.2984 431.108 48.5923 431.308 48.9893C431.511 49.3833 431.612 49.8849 431.612 50.4943V55H430.523V50.5682C430.523 50.005 430.377 49.5695 430.084 49.2617C429.795 48.9509 429.393 48.7955 428.879 48.7955C428.522 48.7955 428.202 48.8709 427.919 49.0217C427.639 49.1725 427.418 49.3925 427.254 49.6818C427.094 49.9711 427.014 50.322 427.014 50.7344ZM438.074 52.1009V47.9091H439.164V55H438.074V53.7997H438C437.834 54.1598 437.576 54.466 437.225 54.7184C436.874 54.9677 436.431 55.0923 435.895 55.0923C435.452 55.0923 435.058 54.9954 434.714 54.8015C434.369 54.6045 434.098 54.3091 433.901 53.9151C433.704 53.5181 433.606 53.018 433.606 52.4148V47.9091H434.695V52.3409C434.695 52.858 434.84 53.2704 435.129 53.5781C435.421 53.8859 435.794 54.0398 436.246 54.0398C436.517 54.0398 436.792 53.9705 437.073 53.832C437.356 53.6935 437.593 53.4812 437.783 53.195C437.977 52.9087 438.074 52.544 438.074 52.1009ZM442.249 50.7344V55H441.159V47.9091H442.212V49.017H442.304C442.47 48.657 442.723 48.3677 443.061 48.1491C443.4 47.9276 443.837 47.8168 444.372 47.8168C444.852 47.8168 445.273 47.9152 445.633 48.1122C445.993 48.3061 446.273 48.6016 446.473 48.9986C446.673 49.3925 446.773 49.8911 446.773 50.4943V55H445.683V50.5682C445.683 50.0111 445.539 49.5772 445.249 49.2663C444.96 48.9524 444.563 48.7955 444.058 48.7955C443.711 48.7955 443.4 48.8709 443.126 49.0217C442.855 49.1725 442.641 49.3925 442.484 49.6818C442.327 49.9711 442.249 50.322 442.249 50.7344ZM449.779 52.4148L449.761 51.0668H449.983L453.085 47.9091H454.433L451.127 51.2514H451.035L449.779 52.4148ZM448.764 55V45.5455H449.853V55H448.764ZM453.269 55L450.5 51.4915L451.275 50.7344L454.654 55H453.269Z" fill="white"/>
<path d="M63.415 48.5H62.2701C62.2024 48.1707 62.0839 47.8814 61.9146 47.6321C61.7484 47.3828 61.5453 47.1735 61.3052 47.0043C61.0682 46.8319 60.8051 46.7027 60.5158 46.6165C60.2265 46.5303 59.9249 46.4872 59.611 46.4872C59.0385 46.4872 58.5199 46.6319 58.0552 46.9212C57.5936 47.2105 57.2258 47.6367 56.9519 48.1999C56.681 48.7631 56.5456 49.4541 56.5456 50.2727C56.5456 51.0914 56.681 51.7823 56.9519 52.3455C57.2258 52.9087 57.5936 53.335 58.0552 53.6243C58.5199 53.9136 59.0385 54.0582 59.611 54.0582C59.9249 54.0582 60.2265 54.0152 60.5158 53.929C60.8051 53.8428 61.0682 53.7151 61.3052 53.5458C61.5453 53.3735 61.7484 53.1626 61.9146 52.9134C62.0839 52.661 62.2024 52.3717 62.2701 52.0455H63.415C63.3288 52.5286 63.1718 52.9611 62.9441 53.3427C62.7163 53.7243 62.4332 54.049 62.0946 54.3168C61.7561 54.5814 61.376 54.783 60.9544 54.9215C60.5358 55.06 60.088 55.1293 59.611 55.1293C58.8046 55.1293 58.0875 54.9323 57.4597 54.5384C56.8319 54.1444 56.3379 53.5843 55.9778 52.858C55.6177 52.1316 55.4377 51.2699 55.4377 50.2727C55.4377 49.2756 55.6177 48.4138 55.9778 47.6875C56.3379 46.9612 56.8319 46.401 57.4597 46.0071C58.0875 45.6132 58.8046 45.4162 59.611 45.4162C60.088 45.4162 60.5358 45.4854 60.9544 45.6239C61.376 45.7624 61.7561 45.9656 62.0946 46.2333C62.4332 46.498 62.7163 46.8211 62.9441 47.2028C63.1718 47.5813 63.3288 48.0137 63.415 48.5ZM67.998 55.1477C67.3578 55.1477 66.7961 54.9954 66.3129 54.6907C65.8328 54.386 65.4574 53.9598 65.1865 53.4119C64.9188 52.8641 64.7849 52.224 64.7849 51.4915C64.7849 50.7528 64.9188 50.1081 65.1865 49.5572C65.4574 49.0063 65.8328 48.5785 66.3129 48.2738C66.7961 47.9691 67.3578 47.8168 67.998 47.8168C68.6381 47.8168 69.1982 47.9691 69.6784 48.2738C70.1615 48.5785 70.537 49.0063 70.8048 49.5572C71.0756 50.1081 71.211 50.7528 71.211 51.4915C71.211 52.224 71.0756 52.8641 70.8048 53.4119C70.537 53.9598 70.1615 54.386 69.6784 54.6907C69.1982 54.9954 68.6381 55.1477 67.998 55.1477ZM67.998 54.169C68.4842 54.169 68.8843 54.0444 69.1982 53.7951C69.5122 53.5458 69.7445 53.218 69.8953 52.8118C70.0461 52.4055 70.1215 51.9654 70.1215 51.4915C70.1215 51.0175 70.0461 50.5759 69.8953 50.1665C69.7445 49.7572 69.5122 49.4264 69.1982 49.174C68.8843 48.9216 68.4842 48.7955 67.998 48.7955C67.5117 48.7955 67.1116 48.9216 66.7977 49.174C66.4838 49.4264 66.2514 49.7572 66.1006 50.1665C65.9498 50.5759 65.8744 51.0175 65.8744 51.4915C65.8744 51.9654 65.9498 52.4055 66.1006 52.8118C66.2514 53.218 66.4838 53.5458 66.7977 53.7951C67.1116 54.0444 67.5117 54.169 67.998 54.169ZM72.8741 55V47.9091H73.9267V49.017H74.019C74.1667 48.6385 74.4052 48.3446 74.7346 48.1353C75.0639 47.9229 75.4593 47.8168 75.921 47.8168C76.3888 47.8168 76.7781 47.9229 77.089 48.1353C77.4029 48.3446 77.6475 48.6385 77.823 49.017H77.8968C78.0784 48.6508 78.3508 48.36 78.714 48.1445C79.0771 47.926 79.5126 47.8168 80.0204 47.8168C80.6544 47.8168 81.173 48.0153 81.5762 48.4123C81.9793 48.8062 82.1809 49.4202 82.1809 50.2543V55H81.0914V50.2543C81.0914 49.7311 80.9483 49.3571 80.6621 49.1325C80.3759 48.9078 80.0389 48.7955 79.6511 48.7955C79.1525 48.7955 78.7663 48.9463 78.4924 49.2479C78.2185 49.5464 78.0815 49.925 78.0815 50.3835V55H76.9735V50.1435C76.9735 49.7403 76.8427 49.4156 76.5811 49.1694C76.3195 48.9201 75.9825 48.7955 75.5701 48.7955C75.287 48.7955 75.0223 48.8709 74.7761 49.0217C74.533 49.1725 74.336 49.3817 74.1852 49.6495C74.0375 49.9142 73.9636 50.2204 73.9636 50.5682V55H72.8741ZM84.1729 57.6591V47.9091H85.2255V49.0355H85.3548C85.4348 48.9124 85.5456 48.7554 85.6871 48.5646C85.8318 48.3707 86.038 48.1984 86.3058 48.0476C86.5766 47.8937 86.9428 47.8168 87.4045 47.8168C88.0015 47.8168 88.5278 47.966 88.9833 48.2646C89.4388 48.5631 89.7943 48.9863 90.0497 49.5341C90.3052 50.0819 90.4329 50.7282 90.4329 51.473C90.4329 52.224 90.3052 52.8749 90.0497 53.4258C89.7943 53.9736 89.4403 54.3983 88.9879 54.6999C88.5355 54.9985 88.0138 55.1477 87.4229 55.1477C86.9674 55.1477 86.6027 55.0723 86.3288 54.9215C86.0549 54.7676 85.8441 54.5937 85.6964 54.3999C85.5487 54.2029 85.4348 54.0398 85.3548 53.9105H85.2624V57.6591H84.1729ZM85.244 51.4545C85.244 51.9901 85.3224 52.4625 85.4794 52.8718C85.6364 53.2781 85.8656 53.5966 86.1673 53.8274C86.4689 54.0552 86.8382 54.169 87.2752 54.169C87.7307 54.169 88.1108 54.049 88.4155 53.8089C88.7232 53.5658 88.9541 53.2396 89.108 52.8303C89.2649 52.4179 89.3434 51.9593 89.3434 51.4545C89.3434 50.956 89.2665 50.5066 89.1126 50.1065C88.9618 49.7034 88.7325 49.3848 88.4247 49.1509C88.12 48.9139 87.7369 48.7955 87.2752 48.7955C86.832 48.7955 86.4596 48.9078 86.158 49.1325C85.8564 49.354 85.6287 49.6649 85.4748 50.065C85.3209 50.462 85.244 50.9252 85.244 51.4545ZM92.0948 55V47.9091H93.1474V48.9801H93.2212C93.3505 48.6293 93.5844 48.3446 93.9229 48.1261C94.2615 47.9076 94.6431 47.7983 95.0678 47.7983C95.1478 47.7983 95.2479 47.7998 95.3679 47.8029C95.4879 47.806 95.5787 47.8106 95.6403 47.8168V48.9247C95.6033 48.9155 95.5187 48.9016 95.3864 48.8832C95.2571 48.8616 95.1201 48.8509 94.9755 48.8509C94.6308 48.8509 94.323 48.9232 94.0522 49.0678C93.7844 49.2094 93.5721 49.4064 93.4151 49.6587C93.2612 49.908 93.1843 50.1927 93.1843 50.5128V55H92.0948ZM99.6889 55.1477C99.0057 55.1477 98.4163 54.9969 97.9208 54.6953C97.4284 54.3906 97.0483 53.9659 96.7805 53.4212C96.5159 52.8733 96.3835 52.2363 96.3835 51.5099C96.3835 50.7836 96.5159 50.1435 96.7805 49.5895C97.0483 49.0324 97.4207 48.5985 97.8977 48.2876C98.3778 47.9737 98.938 47.8168 99.5781 47.8168C99.9474 47.8168 100.312 47.8783 100.672 48.0014C101.032 48.1245 101.36 48.3246 101.656 48.6016C101.951 48.8755 102.186 49.2386 102.362 49.6911C102.537 50.1435 102.625 50.7005 102.625 51.3622V51.8239H97.1591V50.8821H101.517C101.517 50.482 101.437 50.125 101.277 49.8111C101.12 49.4972 100.895 49.2494 100.603 49.0678C100.314 48.8862 99.9721 48.7955 99.5781 48.7955C99.1442 48.7955 98.7687 48.9032 98.4517 49.1186C98.1378 49.331 97.8962 49.608 97.7269 49.9496C97.5576 50.2912 97.473 50.6574 97.473 51.0483V51.6761C97.473 52.2116 97.5653 52.6656 97.75 53.038C97.9377 53.4073 98.1978 53.6889 98.5302 53.8828C98.8626 54.0736 99.2488 54.169 99.6889 54.169C99.9751 54.169 100.234 54.129 100.464 54.049C100.698 53.9659 100.9 53.8428 101.069 53.6797C101.239 53.5135 101.369 53.3073 101.462 53.0611L102.514 53.3565C102.403 53.7135 102.217 54.0275 101.956 54.2983C101.694 54.5661 101.371 54.7753 100.986 54.9261C100.601 55.0739 100.169 55.1477 99.6889 55.1477ZM109.305 49.4972L108.326 49.7741C108.265 49.611 108.174 49.4525 108.054 49.2987C107.937 49.1417 107.777 49.0124 107.574 48.9109C107.371 48.8093 107.111 48.7585 106.794 48.7585C106.36 48.7585 105.998 48.8585 105.709 49.0586C105.423 49.2556 105.279 49.5064 105.279 49.8111C105.279 50.0819 105.378 50.2958 105.575 50.4528C105.772 50.6097 106.08 50.7405 106.498 50.8452L107.551 51.1037C108.185 51.2576 108.657 51.493 108.968 51.81C109.279 52.1239 109.434 52.5286 109.434 53.0241C109.434 53.4304 109.317 53.7936 109.083 54.1136C108.853 54.4337 108.529 54.6861 108.114 54.8707C107.699 55.0554 107.215 55.1477 106.664 55.1477C105.941 55.1477 105.343 54.9908 104.869 54.6768C104.395 54.3629 104.095 53.9044 103.968 53.3011L105.002 53.0426C105.101 53.4242 105.287 53.7105 105.561 53.9013C105.838 54.0921 106.2 54.1875 106.646 54.1875C107.154 54.1875 107.557 54.0798 107.855 53.8643C108.157 53.6458 108.308 53.3842 108.308 53.0795C108.308 52.8333 108.222 52.6271 108.049 52.4609C107.877 52.2917 107.612 52.1655 107.255 52.0824L106.074 51.8054C105.424 51.6515 104.947 51.413 104.642 51.0898C104.341 50.7636 104.19 50.3558 104.19 49.8665C104.19 49.4664 104.302 49.1125 104.527 48.8047C104.755 48.4969 105.064 48.2553 105.455 48.0799C105.849 47.9045 106.295 47.8168 106.794 47.8168C107.495 47.8168 108.046 47.9706 108.446 48.2784C108.85 48.5862 109.136 48.9924 109.305 49.4972ZM116.097 49.4972L115.118 49.7741C115.057 49.611 114.966 49.4525 114.846 49.2987C114.729 49.1417 114.569 49.0124 114.366 48.9109C114.163 48.8093 113.903 48.7585 113.586 48.7585C113.152 48.7585 112.79 48.8585 112.501 49.0586C112.215 49.2556 112.071 49.5064 112.071 49.8111C112.071 50.0819 112.17 50.2958 112.367 50.4528C112.564 50.6097 112.872 50.7405 113.29 50.8452L114.343 51.1037C114.977 51.2576 115.449 51.493 115.76 51.81C116.071 52.1239 116.226 52.5286 116.226 53.0241C116.226 53.4304 116.109 53.7936 115.875 54.1136C115.645 54.4337 115.321 54.6861 114.906 54.8707C114.491 55.0554 114.007 55.1477 113.456 55.1477C112.733 55.1477 112.135 54.9908 111.661 54.6768C111.187 54.3629 110.887 53.9044 110.76 53.3011L111.794 53.0426C111.893 53.4242 112.079 53.7105 112.353 53.9013C112.63 54.0921 112.992 54.1875 113.438 54.1875C113.946 54.1875 114.349 54.0798 114.647 53.8643C114.949 53.6458 115.1 53.3842 115.1 53.0795C115.1 52.8333 115.014 52.6271 114.841 52.4609C114.669 52.2917 114.404 52.1655 114.047 52.0824L112.866 51.8054C112.216 51.6515 111.739 51.413 111.434 51.0898C111.133 50.7636 110.982 50.3558 110.982 49.8665C110.982 49.4664 111.094 49.1125 111.319 48.8047C111.547 48.4969 111.856 48.2553 112.247 48.0799C112.641 47.9045 113.087 47.8168 113.586 47.8168C114.287 47.8168 114.838 47.9706 115.238 48.2784C115.642 48.5862 115.928 48.9924 116.097 49.4972ZM120.839 55.1477C120.156 55.1477 119.567 54.9969 119.071 54.6953C118.579 54.3906 118.199 53.9659 117.931 53.4212C117.666 52.8733 117.534 52.2363 117.534 51.5099C117.534 50.7836 117.666 50.1435 117.931 49.5895C118.199 49.0324 118.571 48.5985 119.048 48.2876C119.528 47.9737 120.088 47.8168 120.729 47.8168C121.098 47.8168 121.463 47.8783 121.823 48.0014C122.183 48.1245 122.51 48.3246 122.806 48.6016C123.101 48.8755 123.337 49.2386 123.512 49.6911C123.688 50.1435 123.775 50.7005 123.775 51.3622V51.8239H118.309V50.8821H122.667C122.667 50.482 122.587 50.125 122.427 49.8111C122.27 49.4972 122.046 49.2494 121.753 49.0678C121.464 48.8862 121.122 48.7955 120.729 48.7955C120.295 48.7955 119.919 48.9032 119.602 49.1186C119.288 49.331 119.047 49.608 118.877 49.9496C118.708 50.2912 118.623 50.6574 118.623 51.0483V51.6761C118.623 52.2116 118.716 52.6656 118.9 53.038C119.088 53.4073 119.348 53.6889 119.681 53.8828C120.013 54.0736 120.399 54.169 120.839 54.169C121.126 54.169 121.384 54.129 121.615 54.049C121.849 53.9659 122.05 53.8428 122.22 53.6797C122.389 53.5135 122.52 53.3073 122.612 53.0611L123.665 53.3565C123.554 53.7135 123.368 54.0275 123.106 54.2983C122.844 54.5661 122.521 54.7753 122.137 54.9261C121.752 55.0739 121.319 55.1477 120.839 55.1477ZM128.11 55.1477C127.519 55.1477 126.998 54.9985 126.545 54.6999C126.093 54.3983 125.739 53.9736 125.483 53.4258C125.228 52.8749 125.1 52.224 125.1 51.473C125.1 50.7282 125.228 50.0819 125.483 49.5341C125.739 48.9863 126.094 48.5631 126.55 48.2646C127.005 47.966 127.532 47.8168 128.129 47.8168C128.59 47.8168 128.955 47.8937 129.223 48.0476C129.494 48.1984 129.7 48.3707 129.841 48.5646C129.986 48.7554 130.098 48.9124 130.178 49.0355H130.271V45.5455H131.36V55H130.308V53.9105H130.178C130.098 54.0398 129.985 54.2029 129.837 54.3999C129.689 54.5937 129.478 54.7676 129.204 54.9215C128.93 55.0723 128.566 55.1477 128.11 55.1477ZM128.258 54.169C128.695 54.169 129.064 54.0552 129.366 53.8274C129.668 53.5966 129.897 53.2781 130.054 52.8718C130.211 52.4625 130.289 51.9901 130.289 51.4545C130.289 50.9252 130.212 50.462 130.058 50.065C129.905 49.6649 129.677 49.354 129.375 49.1325C129.074 48.9078 128.701 48.7955 128.258 48.7955C127.796 48.7955 127.412 48.9139 127.104 49.1509C126.799 49.3848 126.57 49.7034 126.416 50.1065C126.265 50.5066 126.19 50.956 126.19 51.4545C126.19 51.9593 126.267 52.4179 126.421 52.8303C126.578 53.2396 126.808 53.5658 127.113 53.8089C127.421 54.049 127.802 54.169 128.258 54.169ZM140.044 55.1477C139.379 55.1477 138.807 54.9908 138.327 54.6768C137.846 54.3629 137.477 53.9305 137.219 53.3796C136.96 52.8287 136.831 52.1993 136.831 51.4915C136.831 50.7713 136.963 50.1358 137.228 49.5849C137.496 49.0309 137.868 48.5985 138.345 48.2876C138.825 47.9737 139.385 47.8168 140.025 47.8168C140.524 47.8168 140.973 47.9091 141.373 48.0938C141.773 48.2784 142.101 48.5369 142.357 48.8693C142.612 49.2017 142.771 49.5895 142.832 50.0327H141.743C141.66 49.7095 141.475 49.4233 141.189 49.174C140.906 48.9216 140.524 48.7955 140.044 48.7955C139.619 48.7955 139.247 48.9062 138.927 49.1278C138.61 49.3464 138.362 49.6557 138.183 50.0558C138.008 50.4528 137.92 50.919 137.92 51.4545C137.92 52.0024 138.006 52.4794 138.179 52.8857C138.354 53.2919 138.6 53.6074 138.917 53.832C139.238 54.0567 139.613 54.169 140.044 54.169C140.327 54.169 140.584 54.1198 140.815 54.0213C141.046 53.9228 141.241 53.7812 141.401 53.5966C141.561 53.4119 141.675 53.1903 141.743 52.9318H142.832C142.771 53.3504 142.618 53.7274 142.375 54.0629C142.135 54.3952 141.817 54.6599 141.42 54.8569C141.026 55.0508 140.567 55.1477 140.044 55.1477ZM145.514 50.7344V55H144.425V45.5455H145.514V49.017H145.607C145.773 48.6508 146.022 48.36 146.355 48.1445C146.69 47.926 147.136 47.8168 147.693 47.8168C148.177 47.8168 148.6 47.9137 148.963 48.1076C149.326 48.2984 149.608 48.5923 149.808 48.9893C150.011 49.3833 150.112 49.8849 150.112 50.4943V55H149.023V50.5682C149.023 50.005 148.877 49.5695 148.584 49.2617C148.295 48.9509 147.893 48.7955 147.379 48.7955C147.022 48.7955 146.702 48.8709 146.419 49.0217C146.139 49.1725 145.918 49.3925 145.754 49.6818C145.594 49.9711 145.514 50.322 145.514 50.7344ZM156.574 52.1009V47.9091H157.664V55H156.574V53.7997H156.5C156.334 54.1598 156.076 54.466 155.725 54.7184C155.374 54.9677 154.931 55.0923 154.395 55.0923C153.952 55.0923 153.558 54.9954 153.214 54.8015C152.869 54.6045 152.598 54.3091 152.401 53.9151C152.204 53.5181 152.106 53.018 152.106 52.4148V47.9091H153.195V52.3409C153.195 52.858 153.34 53.2704 153.629 53.5781C153.921 53.8859 154.294 54.0398 154.746 54.0398C155.017 54.0398 155.292 53.9705 155.573 53.832C155.856 53.6935 156.093 53.4812 156.283 53.195C156.477 52.9087 156.574 52.544 156.574 52.1009ZM160.749 50.7344V55H159.659V47.9091H160.712V49.017H160.804C160.97 48.657 161.223 48.3677 161.561 48.1491C161.9 47.9276 162.337 47.8168 162.872 47.8168C163.352 47.8168 163.773 47.9152 164.133 48.1122C164.493 48.3061 164.773 48.6016 164.973 48.9986C165.173 49.3925 165.273 49.8911 165.273 50.4943V55H164.183V50.5682C164.183 50.0111 164.039 49.5772 163.749 49.2663C163.46 48.9524 163.063 48.7955 162.558 48.7955C162.211 48.7955 161.9 48.8709 161.626 49.0217C161.355 49.1725 161.141 49.3925 160.984 49.6818C160.827 49.9711 160.749 50.322 160.749 50.7344ZM168.279 52.4148L168.261 51.0668H168.483L171.585 47.9091H172.933L169.627 51.2514H169.535L168.279 52.4148ZM167.264 55V45.5455H168.353V55H167.264ZM171.769 55L169 51.4915L169.775 50.7344L173.154 55H171.769Z" fill="white"/>
<path d="M95.4468 90.6289H94.1258C94.0477 90.249 93.911 89.9152 93.7157 89.6275C93.5239 89.3399 93.2895 89.0984 93.0125 88.9031C92.7391 88.7042 92.4355 88.5551 92.1017 88.4556C91.7679 88.3562 91.4198 88.3065 91.0576 88.3065C90.3971 88.3065 89.7987 88.4734 89.2625 88.8072C88.7299 89.141 88.3055 89.6329 87.9894 90.2827C87.6769 90.9326 87.5207 91.7298 87.5207 92.6744C87.5207 93.619 87.6769 94.4162 87.9894 95.0661C88.3055 95.7159 88.7299 96.2078 89.2625 96.5416C89.7987 96.8754 90.3971 97.0423 91.0576 97.0423C91.4198 97.0423 91.7679 96.9926 92.1017 96.8931C92.4355 96.7937 92.7391 96.6463 93.0125 96.451C93.2895 96.2522 93.5239 96.0089 93.7157 95.7213C93.911 95.4301 94.0477 95.0963 94.1258 94.7199H95.4468C95.3474 95.2774 95.1663 95.7763 94.9035 96.2167C94.6407 96.657 94.314 97.0316 93.9234 97.3406C93.5328 97.646 93.0942 97.8786 92.6077 98.0384C92.1247 98.1982 91.6081 98.2781 91.0576 98.2781C90.1272 98.2781 89.2998 98.0508 88.5754 97.5963C87.8509 97.1417 87.281 96.4954 86.8655 95.6574C86.45 94.8193 86.2423 93.825 86.2423 92.6744C86.2423 91.5238 86.45 90.5295 86.8655 89.6914C87.281 88.8534 87.8509 88.2071 88.5754 87.7525C89.2998 87.298 90.1272 87.0707 91.0576 87.0707C91.6081 87.0707 92.1247 87.1506 92.6077 87.3104C93.0942 87.4702 93.5328 87.7046 93.9234 88.0135C94.314 88.3189 94.6407 88.6918 94.9035 89.1321C95.1663 89.5689 95.3474 90.0679 95.4468 90.6289ZM98.6682 93.2071V98.1289H97.4111V87.2199H98.6682V91.2255H98.7747C98.9664 90.8029 99.2541 90.4674 99.6376 90.2188C100.025 89.9667 100.54 89.8406 101.182 89.8406C101.74 89.8406 102.228 89.9525 102.647 90.1762C103.066 90.3963 103.391 90.7355 103.622 91.1936C103.856 91.6481 103.974 92.227 103.974 92.9301V98.1289H102.716V93.0153C102.716 92.3654 102.548 91.863 102.21 91.5079C101.877 91.1492 101.413 90.9699 100.82 90.9699C100.408 90.9699 100.039 91.0569 99.7122 91.2309C99.389 91.4049 99.1334 91.6588 98.9451 91.9926C98.7605 92.3264 98.6682 92.7312 98.6682 93.2071ZM111.43 94.7838V89.9471H112.687V98.1289H111.43V96.744H111.344C111.153 97.1595 110.854 97.5128 110.449 97.804C110.045 98.0917 109.533 98.2355 108.915 98.2355C108.404 98.2355 107.949 98.1236 107.552 97.8999C107.154 97.6726 106.842 97.3317 106.614 96.8772C106.387 96.4191 106.273 95.842 106.273 95.146V89.9471H107.53V95.0608C107.53 95.6574 107.697 96.1332 108.031 96.4883C108.369 96.8434 108.798 97.021 109.32 97.021C109.633 97.021 109.951 96.9411 110.274 96.7813C110.6 96.6215 110.874 96.3765 111.094 96.0462C111.318 95.7159 111.43 95.2951 111.43 94.7838ZM116.246 93.2071V98.1289H114.989V89.9471H116.204V91.2255H116.31C116.502 90.8101 116.793 90.4762 117.184 90.2241C117.574 89.9684 118.079 89.8406 118.697 89.8406C119.251 89.8406 119.735 89.9542 120.151 90.1815C120.566 90.4052 120.889 90.7461 121.12 91.2042C121.351 91.6588 121.466 92.2341 121.466 92.9301V98.1289H120.209V93.0153C120.209 92.3726 120.042 91.8718 119.709 91.5132C119.375 91.151 118.917 90.9699 118.334 90.9699C117.933 90.9699 117.574 91.0569 117.258 91.2309C116.946 91.4049 116.699 91.6588 116.518 91.9926C116.337 92.3264 116.246 92.7312 116.246 93.2071ZM124.935 95.146L124.914 93.5906H125.17L128.749 89.9471H130.305L126.491 93.8037H126.384L124.935 95.146ZM123.764 98.1289V87.2199H125.021V98.1289H123.764ZM128.962 98.1289L125.766 94.0806L126.661 93.2071L130.56 98.1289H128.962ZM139.955 87.2199V98.1289H138.634V88.6048H138.57L135.907 90.3733V89.0309L138.634 87.2199H139.955Z" fill="black"/>
<path d="M376.856 90.6289H375.535C375.456 90.249 375.32 89.9152 375.124 89.6275C374.933 89.3399 374.698 89.0984 374.421 88.9031C374.148 88.7042 373.844 88.5551 373.51 88.4556C373.177 88.3562 372.829 88.3065 372.466 88.3065C371.806 88.3065 371.208 88.4734 370.671 88.8072C370.139 89.141 369.714 89.6329 369.398 90.2827C369.086 90.9326 368.929 91.7298 368.929 92.6744C368.929 93.619 369.086 94.4162 369.398 95.0661C369.714 95.7159 370.139 96.2078 370.671 96.5416C371.208 96.8754 371.806 97.0423 372.466 97.0423C372.829 97.0423 373.177 96.9926 373.51 96.8931C373.844 96.7937 374.148 96.6463 374.421 96.451C374.698 96.2522 374.933 96.0089 375.124 95.7213C375.32 95.4301 375.456 95.0963 375.535 94.7199H376.856C376.756 95.2774 376.575 95.7763 376.312 96.2167C376.05 96.657 375.723 97.0316 375.332 97.3406C374.942 97.646 374.503 97.8786 374.017 98.0384C373.534 98.1982 373.017 98.2781 372.466 98.2781C371.536 98.2781 370.709 98.0508 369.984 97.5963C369.26 97.1417 368.69 96.4954 368.274 95.6574C367.859 94.8193 367.651 93.825 367.651 92.6744C367.651 91.5238 367.859 90.5295 368.274 89.6914C368.69 88.8534 369.26 88.2071 369.984 87.7525C370.709 87.298 371.536 87.0707 372.466 87.0707C373.017 87.0707 373.534 87.1506 374.017 87.3104C374.503 87.4702 374.942 87.7046 375.332 88.0135C375.723 88.3189 376.05 88.6918 376.312 89.1321C376.575 89.5689 376.756 90.0679 376.856 90.6289ZM380.077 93.2071V98.1289H378.82V87.2199H380.077V91.2255H380.183C380.375 90.8029 380.663 90.4674 381.046 90.2188C381.433 89.9667 381.948 89.8406 382.591 89.8406C383.149 89.8406 383.637 89.9525 384.056 90.1762C384.475 90.3963 384.8 90.7355 385.031 91.1936C385.265 91.6481 385.382 92.227 385.382 92.9301V98.1289H384.125V93.0153C384.125 92.3654 383.957 91.863 383.619 91.5079C383.285 91.1492 382.822 90.9699 382.229 90.9699C381.817 90.9699 381.448 91.0569 381.121 91.2309C380.798 91.4049 380.542 91.6588 380.354 91.9926C380.169 92.3264 380.077 92.7312 380.077 93.2071ZM392.838 94.7838V89.9471H394.096V98.1289H392.838V96.744H392.753C392.561 97.1595 392.263 97.5128 391.858 97.804C391.453 98.0917 390.942 98.2355 390.324 98.2355C389.813 98.2355 389.358 98.1236 388.961 97.8999C388.563 97.6726 388.25 97.3317 388.023 96.8772C387.796 96.4191 387.682 95.842 387.682 95.146V89.9471H388.939V95.0608C388.939 95.6574 389.106 96.1332 389.44 96.4883C389.777 96.8434 390.207 97.021 390.729 97.021C391.042 97.021 391.359 96.9411 391.683 96.7813C392.009 96.6215 392.283 96.3765 392.503 96.0462C392.727 95.7159 392.838 95.2951 392.838 94.7838ZM397.655 93.2071V98.1289H396.398V89.9471H397.612V91.2255H397.719C397.911 90.8101 398.202 90.4762 398.593 90.2241C398.983 89.9684 399.487 89.8406 400.105 89.8406C400.659 89.8406 401.144 89.9542 401.56 90.1815C401.975 90.4052 402.298 90.7461 402.529 91.2042C402.76 91.6588 402.875 92.2341 402.875 92.9301V98.1289H401.618V93.0153C401.618 92.3726 401.451 91.8718 401.117 91.5132C400.784 91.151 400.326 90.9699 399.743 90.9699C399.342 90.9699 398.983 91.0569 398.667 91.2309C398.355 91.4049 398.108 91.6588 397.927 91.9926C397.746 92.3264 397.655 92.7312 397.655 93.2071ZM406.344 95.146L406.323 93.5906H406.579L410.158 89.9471H411.714L407.9 93.8037H407.793L406.344 95.146ZM405.172 98.1289V87.2199H406.429V98.1289H405.172ZM410.371 98.1289L407.175 94.0806L408.07 93.2071L411.969 98.1289H410.371ZM417.529 98.1289V97.1701L421.13 93.2284C421.552 92.7667 421.9 92.3654 422.174 92.0245C422.447 91.6801 422.65 91.3569 422.781 91.0551C422.916 90.7497 422.984 90.4301 422.984 90.0963C422.984 89.7128 422.891 89.3807 422.707 89.1002C422.525 88.8196 422.277 88.603 421.961 88.4503C421.645 88.2976 421.29 88.2213 420.895 88.2213C420.476 88.2213 420.111 88.3083 419.798 88.4823C419.489 88.6527 419.25 88.8924 419.079 89.2014C418.912 89.5103 418.829 89.8726 418.829 90.288H417.572C417.572 89.6488 417.719 89.0878 418.014 88.6048C418.308 88.1218 418.71 87.7454 419.218 87.4755C419.729 87.2056 420.302 87.0707 420.938 87.0707C421.577 87.0707 422.144 87.2056 422.637 87.4755C423.131 87.7454 423.518 88.1094 423.799 88.5675C424.079 89.0256 424.219 89.5352 424.219 90.0963C424.219 90.4976 424.147 90.89 424.001 91.2735C423.859 91.6534 423.61 92.0778 423.255 92.5466C422.904 93.0118 422.415 93.5799 421.79 94.2511L419.34 96.8718V96.9571H424.411V98.1289H417.529Z" fill="black"/>
<rect x="1.5" y="1.5" width="558" height="107" stroke="#131212" stroke-width="3"/>
</svg>
