<svg width="873" height="236" viewBox="0 0 873 236" fill="none" xmlns="http://www.w3.org/2000/svg">
<g filter="url(#filter0_i_1369_58)">
<path d="M17.6815 124.072C17.6815 124.072 21.6624 108.978 11.3784 99.357C17.018 98.5276 20.6672 100.352 20.6672 100.352L22.6577 87.5801L35.5956 75.9691L43.0599 44.6194L58.8176 59.8795L60.9739 60.5431L68.2723 55.7328L67.277 61.0407L57.6565 101.679L53.3439 104.499L26.8045 113.29L17.6815 124.072Z" fill="#FF5E19"/>
<path d="M104.93 50.259C104.93 50.259 121.849 34.6671 124.834 11.1134C132.465 22.5585 136.445 52.7471 136.445 52.7471C136.445 52.7471 132.962 57.8891 131.635 59.7137C131.635 59.7137 138.27 60.3772 141.753 57.5574C146.564 53.7423 146.895 52.2495 150.876 48.1027C153.53 57.7233 158.341 89.0729 157.014 94.8784C154.028 98.6935 145.071 102.674 144.241 103.172C143.412 103.504 153.198 103.338 154.194 102.84C155.355 102.177 170.117 88.4095 171.444 87.5801C172.771 86.7507 163.648 113.954 161.16 116.773C158.506 119.427 150.71 124.238 150.047 124.735C149.549 125.067 151.706 128.716 151.706 128.716C162.321 145.469 155.852 177.482 155.852 177.482C155.852 177.482 171.444 167.032 177.913 170.184C183.387 172.838 169.786 194.401 162.819 202.363C154.194 211.984 137.441 231.225 123.839 231.722C114.55 240.016 52.5145 164.71 52.5145 164.71L33.9369 112.627L35.2639 110.636C38.4154 108.314 49.3629 106.489 49.3629 106.489L67.9406 71.1588L104.93 50.259Z" fill="#FF5E19"/>
<path d="M47.7042 83.9309C47.7042 83.9309 45.8797 88.4095 46.3773 94.215C41.567 93.8832 36.9226 93.3856 31.7806 93.7174C34.2687 98.8594 37.0884 104.333 37.0884 104.333L30.7853 103.172L27.9655 93.7174L46.0455 74.4763L49.1971 75.1397L47.7042 83.9309Z" fill="#FF8819"/>
<path d="M108.745 108.314C108.745 108.314 118.365 97.2007 117.37 92.0586C116.375 86.9166 112.394 82.604 109.906 80.1159C107.418 77.6278 98.9585 71.1588 94.48 66.3486C91.9919 63.6946 87.8451 59.2161 87.8451 59.2161C87.8451 59.2161 98.1291 67.8414 104.101 71.9882C105.427 66.5144 121.683 61.2065 121.683 61.2065L124.669 65.5192L125.996 67.3438C135.45 62.5335 149.218 49.5955 149.218 49.5955C149.218 49.5955 155.355 86.419 150.71 90.3999C141.422 98.03 108.745 108.314 108.745 108.314Z" fill="#FF8819"/>
<path d="M125.83 18.5776C128.484 26.0418 131.635 53.2447 131.635 53.2447C131.635 53.2447 128.65 56.2304 126.825 57.5574C119.029 63.3629 108.579 66.6803 103.769 74.3104C97.1339 69.1684 88.011 59.2161 88.011 59.2161L68.9358 76.4667L60.3104 93.8832C60.3104 93.8832 54.3392 78.7889 56.6614 69.9977C76.2342 46.2781 100.949 49.2638 109.74 46.6098C117.702 38.4821 123.176 26.7053 125.83 18.5776ZM146.895 53.9082C146.895 53.9082 146.232 70.4953 143.744 72.3199C141.422 74.1445 124.834 76.4667 124.834 76.4667L119.858 91.2293L116.873 85.9214L114.385 66.6803L135.782 63.3629L146.895 53.9082Z" fill="#FFA819"/>
<path d="M145.568 184.947L152.203 180.136C152.203 180.136 157.179 148.289 148.222 133.029C141.421 121.418 142.914 123.74 133.46 120.589C135.948 119.759 144.905 118.93 144.905 118.93C144.905 118.93 147.725 112.461 148.222 109.973C146.398 108.646 135.118 107.816 128.484 108.978C128.484 108.646 130.972 105.992 130.972 105.992C130.972 105.992 113.389 108.646 98.6267 121.418C100.285 113.124 109.077 95.2102 110.404 88.2436C109.906 85.092 88.0109 67.5096 88.0109 67.5096L87.0157 64.3581C87.0157 64.3581 70.2627 83.4333 67.4429 116.442C68.1064 118.598 68.9357 120.589 68.9357 120.589L70.5944 121.75L68.1063 122.247C68.1063 122.247 57.8224 109.475 45.5479 110.802C49.6947 114.783 55.9977 122.579 59.481 129.546C63.4619 137.673 64.2913 144.64 64.2913 144.64C62.9643 141.488 60.8081 136.844 58.32 132.365C53.178 123.242 46.2114 113.456 40.0741 110.139C37.5861 108.646 30.9512 105.992 30.9512 105.992L24.1504 109.807C24.1504 109.807 9.55371 116.276 5.5728 168.857C3.41647 196.723 25.1456 215.633 42.8939 226.415C54.6707 233.547 86.5181 228.073 86.5181 228.073L120.522 204.851C124.503 200.041 145.568 184.947 145.568 184.947Z" fill="#FFB01C"/>
<path d="M1.92377 180.136C2.25552 182.956 2.58718 185.444 3.08479 187.767C5.24112 202.363 13.8665 216.296 16.5204 216.131C18.6768 215.301 12.7053 196.558 10.549 182.127C10.2173 179.971 7.56336 177.814 7.06575 175.492C5.07529 162.388 2.25552 148.123 1.09442 149.284C-0.896042 150.28 0.099187 165.54 1.92377 180.136Z" fill="#FF852E"/>
<path d="M58.8176 62.5335L55.9978 60.8748L44.8844 49.7614L39.9082 70.993L41.2352 77.9596L29.9559 87.5801C29.9559 87.5801 26.4726 92.7221 28.2972 96.2054C30.7853 92.2245 39.5765 82.1064 45.8796 77.7937C45.0503 79.95 44.7185 83.9309 45.2161 88.4095C55.1684 84.0968 54.1732 82.9357 54.1732 82.9357C54.1732 82.9357 52.3486 72.9834 52.5145 71.8223C52.5145 70.1636 58.8176 62.5335 58.8176 62.5335Z" fill="#FFA819"/>
<path d="M98.295 55.0693C98.295 55.0693 70.4286 63.3629 61.8033 109.973C52.3486 106.821 43.3916 107.485 43.3916 107.485L36.5908 96.703L49.5288 98.5276C49.5288 98.5276 48.6994 86.5848 53.6756 77.296C54.1732 78.9548 59.647 92.2245 59.647 92.2245C59.647 92.2245 59.4811 81.1111 60.4764 71.9882C65.2866 65.5192 75.7365 58.3867 98.295 55.0693Z" fill="#FFCB2B"/>
<path d="M132.299 195.562C132.63 196.226 132.796 197.055 132.796 197.885V198.05C132.63 199.875 131.635 201.866 130.308 204.022C128.981 206.178 127.323 208.169 125.83 209.993C125.664 210.159 125.498 210.491 125.332 210.657C124.171 211.984 123.176 212.979 122.512 213.642C122.346 213.808 122.346 213.808 122.181 213.974C122.181 214.14 122.015 214.14 122.015 214.306C122.015 214.472 122.015 214.472 121.849 214.638V214.969C121.849 215.135 121.849 215.135 122.015 215.135L122.346 215.467C122.512 215.633 122.512 215.633 122.678 215.799C122.844 215.965 123.01 216.13 123.01 216.296C123.176 216.628 123.342 217.126 123.01 217.789C123.01 217.955 122.844 218.121 122.678 218.453L122.512 218.619C122.512 218.619 122.512 218.784 122.346 218.784C122.181 218.95 122.181 219.116 122.015 219.282C122.015 219.282 121.849 219.448 121.849 219.614C121.849 219.78 121.683 219.78 121.683 219.945C121.517 220.111 121.517 220.277 121.351 220.443C121.185 220.609 121.185 220.609 121.019 220.775C119.527 222.434 116.873 224.756 112.56 228.073C112.56 228.073 112.394 228.073 112.394 228.239C111.565 228.903 110.735 228.239 109.408 228.737C105.925 230.064 101.115 231.888 95.3094 233.049C83.8643 235.372 68.2723 237.03 51.8511 234.708C42.2305 233.381 31.7807 228.571 27.6339 225.585C26.3069 224.59 20.8331 220.941 17.5157 218.121C16.6863 217.457 16.0228 216.794 15.5252 216.296C15.5252 216.13 15.3594 216.13 15.1935 216.13C15.1935 216.13 15.1935 216.13 15.0276 215.965C15.0276 215.633 15.0276 215.301 14.8618 214.969C13.8665 207.339 12.5395 199.212 10.3832 191.747C9.22211 187.766 6.73408 181.961 5.24124 179.639C2.75316 150.445 20.1696 124.238 31.283 130.541C38.4154 134.522 40.9036 142.815 42.2305 150.279C45.7138 169.355 37.0885 191.416 36.5909 192.079C37.4202 191.581 63.462 196.724 61.9692 189.923C62.3009 174.497 75.5707 155.587 83.0349 149.616C90.0015 143.976 104.101 137.01 118.365 145.801C130.474 153.265 139.929 174.165 128.318 193.738C129.811 194.07 130.806 194.733 131.469 195.562C132.133 195.396 132.299 195.562 132.299 195.562Z" fill="#FEF0D2"/>
<path d="M132.299 195.562C132.133 195.396 132.133 195.397 132.133 195.397C131.967 195.065 131.635 194.899 131.303 194.567C126.991 197.553 110.901 211.32 101.281 215.467C79.3857 224.922 44.7185 228.239 15.3593 214.803C15.3593 215.135 15.5251 215.467 15.5251 215.799C15.5251 215.799 15.5252 215.799 15.6911 215.965C15.6911 215.965 15.857 216.13 16.0228 216.13C16.5204 216.628 17.1839 217.292 18.0132 217.955C21.3306 220.775 26.6386 224.424 28.1314 225.419C32.2782 228.405 42.7281 233.049 52.3486 234.542C68.7699 236.864 84.3618 235.206 95.8069 232.883C101.612 231.722 106.423 229.898 109.906 228.571C111.233 228.073 111.896 228.737 112.892 228.073C112.892 228.073 113.058 228.073 113.058 227.907C115.712 225.751 119.527 219.78 122.346 215.301C123.673 213.145 124.834 211.486 125.498 210.491C125.664 210.159 125.996 209.993 125.996 209.827C129.479 207.173 129.147 206.842 130.142 204.685C130.308 204.354 130.308 204.188 130.474 203.856C131.303 202.363 132.63 200.041 132.962 197.885V197.719C132.796 197.055 132.796 196.392 132.299 195.562Z" fill="#F3E3C7"/>
<path d="M162.653 199.543C157.843 206.012 141.09 222.268 138.768 223.263C139.431 219.448 140.592 218.95 138.768 217.292C134.455 213.311 125.332 206.178 119.195 208.334C120.522 209.33 130.474 200.87 132.133 199.543C154.194 183.288 198.813 151.938 162.653 199.543Z" fill="#FFB640"/>
<path d="M86.8498 64.1922L87.8451 67.3438C87.8451 67.3438 97.2998 74.808 103.935 80.9452L104.101 87.5801C104.101 87.5801 81.8737 103.006 71.0921 119.925C69.7651 119.096 68.7699 118.266 67.7746 117.603C67.6088 116.939 67.4429 116.939 67.277 116.276C70.0969 83.2674 86.8498 64.1922 86.8498 64.1922Z" fill="#FFCB2B"/>
<path d="M146.398 212.149C146.398 215.965 144.076 220.111 140.592 223.595C137.109 227.078 132.299 229.898 127.157 231.391C121.849 232.883 117.204 232.718 113.721 231.225C110.238 229.732 108.081 226.912 108.247 223.097C108.247 219.282 110.57 215.135 114.053 211.652C117.536 208.169 122.346 205.349 127.488 203.856C132.796 202.363 137.441 202.529 140.924 204.022C144.241 205.349 146.398 208.169 146.398 212.149Z" fill="#FF852E"/>
<path d="M144.739 212.647C144.739 209.33 142.914 206.842 139.763 205.515C136.611 204.188 132.299 204.022 127.323 205.349C122.512 206.676 118.034 209.33 114.882 212.481C111.731 215.633 109.74 219.116 109.74 222.434C109.74 225.751 111.565 228.239 114.716 229.566C117.868 230.893 122.18 231.059 126.991 229.732C131.801 228.405 136.28 225.751 139.431 222.599C142.749 219.448 144.573 215.799 144.739 212.647Z" fill="#FEF0D2"/>
<path d="M138.934 39.975L147.061 0C147.061 0 153.862 19.2411 151.871 22.0609C149.881 24.8807 138.934 39.975 138.934 39.975Z" fill="#FF5E19"/>
<path d="M110.57 12.2745L110.901 27.3688L105.925 22.2268C105.759 20.2363 110.57 12.2745 110.57 12.2745Z" fill="#FF5E19"/>
<path d="M122.512 207.339L124.005 210.657C124.005 210.657 119.029 213.145 115.712 217.292C112.892 220.941 110.901 225.751 114.55 229.068C115.048 229.566 116.209 230.064 117.37 230.395C116.375 230.229 115.546 229.898 114.716 229.566C111.565 228.239 109.74 225.751 109.74 222.434C109.74 219.116 111.731 215.633 114.882 212.481C117.038 210.491 119.527 208.666 122.512 207.339Z" fill="#00CAE0"/>
<path d="M5.73878 180.966C7.23162 184.449 8.89028 189.093 10.549 195.065C12.2077 201.534 13.5347 207.671 14.0324 212.315C14.1982 213.145 14.1982 213.974 14.1982 214.803C3.74828 203.192 0.596766 190.918 5.73878 180.966Z" fill="#FEF0D2"/>
<path d="M11.0467 197.553C12.3737 203.027 13.5347 208.169 13.8664 212.315C14.0323 213.145 14.0324 213.974 14.0324 214.803C12.8713 213.477 11.876 212.15 10.8808 210.988C10.2173 206.676 9.2221 201.866 8.55862 198.548L11.0467 197.553Z" fill="#00CAE0"/>
<path d="M37.5861 158.407C39.4107 164.213 38.5812 184.283 37.0884 187.766C36.4249 187.932 31.283 185.278 25.9751 183.62C22.3259 182.624 18.6767 183.454 16.8522 180.966C10.8808 171.345 13.3688 156.251 14.1982 153.431C18.5108 144.142 21.9941 141.654 25.3116 141.82C32.444 141.82 34.9321 150.114 37.5861 158.407Z" fill="white"/>
<path d="M25.1458 142.483C24.3164 143.313 23.487 144.308 22.8235 145.469C20.1696 149.948 18.5109 155.753 18.5109 162.388C18.5109 168.857 20.1696 174.828 22.8235 179.307C25.4775 183.785 29.4584 186.605 33.9369 186.605C34.9322 186.605 35.9274 186.44 36.9226 186.108C38.2496 180.966 38.7471 163.715 37.0884 158.573C34.7662 150.611 32.2782 142.483 25.1458 142.483Z" fill="#06162E"/>
<path d="M28.1314 143.147C27.1362 144.142 26.1409 145.137 25.3116 146.63C22.9894 150.445 21.4966 155.919 21.4966 161.89C21.4966 167.862 22.9894 173.336 25.3116 177.151C27.6338 180.966 30.7854 183.122 33.9369 183.122C35.098 183.122 36.425 182.79 37.4202 182.293C38.2495 175.16 38.2496 162.886 36.9226 158.739C35.098 151.938 32.9417 145.137 28.1314 143.147Z" fill="#00C1D6"/>
<path d="M33.771 149.284C31.9464 149.782 30.4536 151.109 29.2925 153.099C27.7997 155.422 26.9703 158.739 26.9703 162.222C26.9703 165.706 27.7997 168.857 29.2925 171.345C30.7854 173.667 32.9417 175.326 35.2639 175.326C36.2591 175.326 37.2544 174.994 38.0837 174.497C38.2496 168.194 38.0837 161.559 37.0884 158.573C36.0932 155.256 35.098 151.938 33.771 149.284Z" fill="#14385B"/>
<path d="M35.2639 152.27C34.1028 152.602 33.1076 153.431 32.2782 154.924C31.283 156.583 30.4536 159.071 30.4536 161.89C30.4536 164.71 31.1171 167.033 32.2782 168.857C33.2734 170.682 34.7662 171.511 36.2591 171.511C37.0884 171.511 37.752 171.179 38.4155 170.848C38.4155 165.871 38.2496 161.061 37.5861 158.739C36.7568 156.417 36.0932 154.26 35.2639 152.27Z" fill="white"/>
<path d="M25.9751 151.109C27.7997 151.606 28.7949 153.597 28.2973 155.256C27.7996 157.08 25.9751 158.075 24.1505 157.578C22.3259 157.08 21.3307 155.09 21.8283 153.431C22.3259 151.606 24.3164 150.611 25.9751 151.109Z" fill="white"/>
<path d="M27.9655 137.673C27.6338 137.673 27.4679 137.673 27.1362 137.839C22.3259 139.498 14.53 145.801 11.8761 154.924C10.2174 152.104 9.05625 148.621 9.05625 148.621C9.05625 148.621 8.22683 173.667 16.3545 182.956C19.3402 183.288 22.8236 183.785 26.9703 184.781C31.9465 185.942 36.2592 188.43 37.2544 188.264C41.4012 185.61 40.7377 162.886 39.7425 157.578C38.7472 152.27 33.9369 139.166 28.7949 137.673C28.629 137.839 28.2973 137.673 27.9655 137.673ZM25.1458 143.645C31.9465 143.81 34.6004 151.109 36.5909 158.905C37.9178 164.213 37.5861 182.79 36.0933 185.942C35.2639 185.278 22.326 180.136 17.3498 179.639C11.8761 170.682 14.1983 156.914 14.8618 154.26C18.8427 145.801 22.1601 143.479 25.1458 143.645Z" fill="#06162E"/>
<path d="M110.238 150.611C115.38 152.104 120.19 156.251 124.171 167.862C124.669 171.179 124.005 187.435 111.399 194.235C107.584 195.894 101.944 193.24 95.9728 192.411C87.0157 191.416 77.8928 191.582 76.8975 191.084C75.5706 186.937 80.7126 166.203 85.1911 161.227C91.826 154.095 98.4609 146.962 110.238 150.611Z" fill="white"/>
<path d="M113.887 165.374L117.868 173.336L113.887 181.132L108.911 184.615L102.442 184.117L99.622 181.961L97.9633 175.824L101.115 167.033L108.413 164.047L113.887 165.374ZM86.0205 180.8L85.1911 176.155L89.8356 158.739L101.612 149.616L104.432 150.114L107.75 150.279L111.233 149.45L118.531 155.587L121.517 158.241L125.332 166.369L125.166 176.321L123.01 183.288L119.692 188.43L116.541 190.918L111.896 193.406H101.447L99.9537 192.908L95.6411 191.416L86.0205 180.8Z" fill="#00C1D6"/>
<path d="M115.877 161.227C115.214 160.729 114.55 160.398 113.721 160.066C107.418 157.412 100.285 161.227 97.4657 168.36C94.8117 175.492 97.6315 183.454 103.769 186.108C110.072 188.762 117.204 184.947 120.024 177.814C122.346 171.511 120.688 164.71 115.877 161.227Z" fill="#14385B"/>
<path d="M111.731 163.549C112.062 163.549 112.228 163.715 112.56 163.881C116.209 165.54 118.2 170.018 117.37 174.828C116.375 180.302 112.062 184.117 107.584 183.454C103.105 182.624 100.286 177.648 101.281 172.009C102.276 166.535 106.589 162.72 111.067 163.383C111.233 163.383 111.565 163.383 111.731 163.549Z" fill="white"/>
<path d="M106.257 147.626C95.1434 146.962 87.1816 154.924 83.8642 159.734C79.7174 165.54 74.2437 183.62 76.2341 191.747C78.0587 192.411 85.5229 192.079 93.8165 193.24C100.949 194.235 106.589 195.397 111.399 196.558C127.323 191.084 133.626 165.374 133.626 165.374C133.626 165.374 130.806 168.36 127.323 170.35C125.996 159.734 121.019 152.27 111.067 148.621C109.906 148.289 107.252 147.626 106.257 147.626ZM123.01 168.194C124.503 177.482 120.688 186.274 111.565 192.411C104.764 191.25 80.3809 189.591 78.888 189.923C77.7269 186.108 82.7031 167.032 86.5182 162.388C92.1578 155.421 101.778 151.109 110.735 154.094C115.38 155.587 121.683 159.734 123.01 168.194Z" fill="#06162E"/>
<path d="M74.4094 201.368C75.4047 199.212 76.5658 187.103 62.3009 184.781C59.1493 180.468 57.1589 176.487 52.6803 173.999C44.3868 169.355 23.9846 189.259 26.1409 208.998C32.1123 207.339 42.8939 204.354 50.1923 203.856C58.9835 206.842 66.2817 205.349 74.4094 201.368Z" fill="#FF8400"/>
<path d="M60.1446 186.439C59.647 184.781 56.6613 177.317 50.6899 175.824C42.2305 175.99 32.9417 189.093 30.1219 195.894C29.2925 198.05 28.629 200.373 28.1314 206.178C33.1076 204.354 44.0551 202.197 50.1923 201.534C52.3486 202.197 61.9692 205.515 72.4191 199.543C73.5802 189.757 64.9549 187.601 60.1446 186.439Z" fill="#FFA700"/>
<path d="M57.1589 186.937C55.3343 187.103 35.7615 189.093 35.7615 189.093C37.7519 184.781 46.709 177.98 50.3581 177.814C54.0073 177.648 57.8224 184.283 57.1589 186.937Z" fill="#FFBC3E"/>
<path d="M101.115 158.573C102.774 159.402 103.603 161.559 102.774 163.217C101.944 165.042 99.7879 165.705 98.1292 164.876C96.4705 164.047 95.6411 162.056 96.4705 160.232C97.4657 158.573 99.4561 157.744 101.115 158.573Z" fill="white"/>
<path d="M113.887 151.441C102.442 146.299 91.9919 152.104 86.684 163.052C81.542 173.999 84.5278 186.937 94.8118 191.913C108.081 198.382 118.697 193.904 124.005 182.956C129.147 172.009 124.171 156.085 113.887 151.441ZM122.346 183.951C114.385 196.06 107.916 196.06 97.6315 190.586C88.6745 185.776 86.3523 173.502 90.4991 164.71C95.4752 154.26 104.432 150.445 113.555 154.758C122.678 159.071 129.313 173.17 122.346 183.951Z" fill="#06162E"/>
<path d="M288.726 206H267.99V195.956C261.618 203.948 253.572 207.944 243.852 207.944C233.7 207.944 225.384 204.326 218.904 197.09C212.424 189.746 209.184 179.702 209.184 166.958C209.184 154.43 212.424 144.44 218.904 136.988C225.384 129.536 233.7 125.81 243.852 125.81C253.788 125.81 261.834 129.806 267.99 137.798V97.946H288.726V206ZM250.17 189.638C253.626 189.638 257.028 188.828 260.376 187.208C263.724 185.48 266.262 183.32 267.99 180.728V153.026C266.262 150.434 263.724 148.328 260.376 146.708C257.028 144.98 253.626 144.116 250.17 144.116C244.338 144.116 239.586 146.222 235.914 150.434C232.242 154.646 230.406 160.154 230.406 166.958C230.406 173.654 232.242 179.108 235.914 183.32C239.586 187.532 244.338 189.638 250.17 189.638Z" fill="url(#paint0_linear_1369_58)"/>
<path d="M345.902 207.944C333.806 207.944 323.816 204.164 315.932 196.604C308.048 189.044 304.106 179.108 304.106 166.796C304.106 155.24 307.886 145.52 315.446 137.636C323.114 129.752 332.834 125.81 344.606 125.81C356.27 125.81 365.72 129.806 372.956 137.798C380.192 145.682 383.81 156.05 383.81 168.902V173.438H325.652C326.3 178.622 328.622 182.942 332.618 186.398C336.614 189.854 341.798 191.582 348.17 191.582C351.626 191.582 355.352 190.88 359.348 189.476C363.452 188.072 366.692 186.182 369.068 183.806L378.14 197.09C370.256 204.326 359.51 207.944 345.902 207.944ZM363.884 159.506C363.56 155.078 361.778 151.082 358.538 147.518C355.406 143.954 350.762 142.172 344.606 142.172C338.774 142.172 334.238 143.954 330.998 147.518C327.758 150.974 325.868 154.97 325.328 159.506H363.884Z" fill="url(#paint1_linear_1369_58)"/>
<path d="M435.445 207.944C423.349 207.944 413.359 204.164 405.475 196.604C397.591 189.044 393.649 179.108 393.649 166.796C393.649 155.24 397.429 145.52 404.989 137.636C412.657 129.752 422.377 125.81 434.149 125.81C445.813 125.81 455.263 129.806 462.499 137.798C469.735 145.682 473.353 156.05 473.353 168.902V173.438H415.195C415.843 178.622 418.165 182.942 422.161 186.398C426.157 189.854 431.341 191.582 437.713 191.582C441.169 191.582 444.895 190.88 448.891 189.476C452.995 188.072 456.235 186.182 458.611 183.806L467.683 197.09C459.799 204.326 449.053 207.944 435.445 207.944ZM453.427 159.506C453.103 155.078 451.321 151.082 448.081 147.518C444.949 143.954 440.305 142.172 434.149 142.172C428.317 142.172 423.781 143.954 420.541 147.518C417.301 150.974 415.411 154.97 414.871 159.506H453.427Z" fill="url(#paint2_linear_1369_58)"/>
<path d="M532.926 207.944C523.098 207.944 515.052 203.948 508.788 195.956V235.808H488.214V127.754H508.788V137.636C514.944 129.752 522.99 125.81 532.926 125.81C543.186 125.81 551.502 129.482 557.874 136.826C564.354 144.062 567.594 154.052 567.594 166.796C567.594 179.54 564.354 189.584 557.874 196.928C551.502 204.272 543.186 207.944 532.926 207.944ZM526.446 189.638C532.386 189.638 537.138 187.532 540.702 183.32C544.374 179.108 546.21 173.6 546.21 166.796C546.21 160.1 544.374 154.646 540.702 150.434C537.138 146.222 532.386 144.116 526.446 144.116C523.098 144.116 519.75 144.98 516.402 146.708C513.054 148.436 510.516 150.542 508.788 153.026V180.728C510.516 183.212 513.054 185.318 516.402 187.046C519.858 188.774 523.206 189.638 526.446 189.638Z" fill="url(#paint3_linear_1369_58)"/>
<path d="M603.235 206H582.661V97.946H603.235V206Z" fill="url(#paint4_linear_1369_58)"/>
<path d="M691.19 206H670.616V197.9C665 204.596 656.738 207.944 645.83 207.944C638.81 207.944 632.492 205.676 626.876 201.14C621.368 196.496 618.614 190.124 618.614 182.024C618.614 173.6 621.314 167.282 626.714 163.07C632.222 158.858 638.594 156.752 645.83 156.752C656.954 156.752 665.216 159.938 670.616 166.31V155.78C670.616 151.784 669.05 148.598 665.918 146.222C662.786 143.846 658.628 142.658 653.444 142.658C644.912 142.658 637.298 145.736 630.602 151.892L622.826 138.122C632.114 129.914 643.508 125.81 657.008 125.81C667.052 125.81 675.26 128.132 681.632 132.776C688.004 137.42 691.19 144.98 691.19 155.456V206ZM654.092 194.012C661.76 194.012 667.268 191.744 670.616 187.208V177.488C667.268 172.952 661.76 170.684 654.092 170.684C649.88 170.684 646.37 171.764 643.562 173.924C640.754 175.976 639.35 178.838 639.35 182.51C639.35 186.074 640.754 188.882 643.562 190.934C646.37 192.986 649.88 194.012 654.092 194.012Z" fill="url(#paint5_linear_1369_58)"/>
<path d="M788.061 206H762.303L741.567 175.868L732.171 185.912V206H711.597V97.946H732.171V162.584L761.817 127.754H787.089L756.147 163.232L788.061 206Z" fill="url(#paint6_linear_1369_58)"/>
<path d="M834.117 207.944C822.021 207.944 812.031 204.164 804.147 196.604C796.263 189.044 792.321 179.108 792.321 166.796C792.321 155.24 796.101 145.52 803.661 137.636C811.329 129.752 821.049 125.81 832.821 125.81C844.485 125.81 853.935 129.806 861.171 137.798C868.407 145.682 872.025 156.05 872.025 168.902V173.438H813.867C814.515 178.622 816.837 182.942 820.833 186.398C824.829 189.854 830.013 191.582 836.385 191.582C839.841 191.582 843.567 190.88 847.563 189.476C851.667 188.072 854.907 186.182 857.283 183.806L866.355 197.09C858.471 204.326 847.725 207.944 834.117 207.944ZM852.099 159.506C851.775 155.078 849.993 151.082 846.753 147.518C843.621 143.954 838.977 142.172 832.821 142.172C826.989 142.172 822.453 143.954 819.213 147.518C815.973 150.974 814.083 154.97 813.543 159.506H852.099Z" fill="url(#paint7_linear_1369_58)"/>
</g>
<defs>
<filter id="filter0_i_1369_58" x="0" y="0" width="873.025" height="236.827" filterUnits="userSpaceOnUse" color-interpolation-filters="sRGB">
<feFlood flood-opacity="0" result="BackgroundImageFix"/>
<feBlend mode="normal" in="SourceGraphic" in2="BackgroundImageFix" result="shape"/>
<feColorMatrix in="SourceAlpha" type="matrix" values="0 0 0 0 0 0 0 0 0 0 0 0 0 0 0 0 0 0 127 0" result="hardAlpha"/>
<feOffset dx="1" dy="1"/>
<feGaussianBlur stdDeviation="0.5"/>
<feComposite in2="hardAlpha" operator="arithmetic" k2="-1" k3="1"/>
<feColorMatrix type="matrix" values="0 0 0 0 0 0 0 0 0 0 0 0 0 0 0 0 0 0 0.02 0"/>
<feBlend mode="normal" in2="shape" result="effect1_innerShadow_1369_58"/>
</filter>
<linearGradient id="paint0_linear_1369_58" x1="204" y1="207" x2="844.023" y2="201.139" gradientUnits="userSpaceOnUse">
<stop stop-color="#FF5E19"/>
<stop offset="1" stop-color="#FFBA2B"/>
</linearGradient>
<linearGradient id="paint1_linear_1369_58" x1="204" y1="207" x2="844.023" y2="201.139" gradientUnits="userSpaceOnUse">
<stop stop-color="#FF5E19"/>
<stop offset="1" stop-color="#FFBA2B"/>
</linearGradient>
<linearGradient id="paint2_linear_1369_58" x1="204" y1="207" x2="844.023" y2="201.139" gradientUnits="userSpaceOnUse">
<stop stop-color="#FF5E19"/>
<stop offset="1" stop-color="#FFBA2B"/>
</linearGradient>
<linearGradient id="paint3_linear_1369_58" x1="204" y1="207" x2="844.023" y2="201.139" gradientUnits="userSpaceOnUse">
<stop stop-color="#FF5E19"/>
<stop offset="1" stop-color="#FFBA2B"/>
</linearGradient>
<linearGradient id="paint4_linear_1369_58" x1="204" y1="207" x2="844.023" y2="201.139" gradientUnits="userSpaceOnUse">
<stop stop-color="#FF5E19"/>
<stop offset="1" stop-color="#FFBA2B"/>
</linearGradient>
<linearGradient id="paint5_linear_1369_58" x1="204" y1="207" x2="844.023" y2="201.139" gradientUnits="userSpaceOnUse">
<stop stop-color="#FF5E19"/>
<stop offset="1" stop-color="#FFBA2B"/>
</linearGradient>
<linearGradient id="paint6_linear_1369_58" x1="204" y1="207" x2="844.023" y2="201.139" gradientUnits="userSpaceOnUse">
<stop stop-color="#FF5E19"/>
<stop offset="1" stop-color="#FFBA2B"/>
</linearGradient>
<linearGradient id="paint7_linear_1369_58" x1="204" y1="207" x2="844.023" y2="201.139" gradientUnits="userSpaceOnUse">
<stop stop-color="#FF5E19"/>
<stop offset="1" stop-color="#FFBA2B"/>
</linearGradient>
</defs>
</svg>
