<svg width="180" height="236" viewBox="0 0 180 236" fill="none" xmlns="http://www.w3.org/2000/svg">
<path d="M18.3796 124.072C18.3796 124.072 22.3604 108.978 12.0764 99.357C17.716 98.5276 21.3652 100.352 21.3652 100.352L23.3557 87.5801L36.2936 75.9691L43.7579 44.6194L59.5156 59.8795L61.672 60.5431L68.9703 55.7328L67.975 61.0407L58.3545 101.679L54.0419 104.499L27.5025 113.29L18.3796 124.072Z" fill="#FF5E19"/>
<path d="M105.628 50.259C105.628 50.259 122.547 34.6671 125.532 11.1134C133.163 22.5585 137.143 52.7471 137.143 52.7471C137.143 52.7471 133.66 57.8891 132.333 59.7137C132.333 59.7137 138.968 60.3772 142.451 57.5574C147.262 53.7423 147.593 52.2495 151.574 48.1027C154.228 57.7233 159.039 89.0729 157.712 94.8784C154.726 98.6935 145.769 102.674 144.939 103.172C144.11 103.504 153.896 103.338 154.892 102.84C156.053 102.177 170.815 88.4095 172.142 87.5801C173.469 86.7507 164.346 113.954 161.858 116.773C159.204 119.427 151.408 124.238 150.745 124.735C150.247 125.067 152.404 128.716 152.404 128.716C163.019 145.469 156.55 177.482 156.55 177.482C156.55 177.482 172.142 167.032 178.611 170.184C184.085 172.838 170.484 194.401 163.517 202.363C154.892 211.984 138.139 231.225 124.537 231.722C115.248 240.016 53.2125 164.71 53.2125 164.71L34.6349 112.627L35.9619 110.636C39.1134 108.314 50.0609 106.489 50.0609 106.489L68.6386 71.1588L105.628 50.259Z" fill="#FF5E19"/>
<path d="M48.4022 83.9309C48.4022 83.9309 46.5777 88.4095 47.0753 94.215C42.265 93.8832 37.6206 93.3856 32.4786 93.7174C34.9667 98.8594 37.7864 104.333 37.7864 104.333L31.4833 103.172L28.6635 93.7174L46.7435 74.4763L49.8951 75.1397L48.4022 83.9309Z" fill="#FF8819"/>
<path d="M109.443 108.314C109.443 108.314 119.063 97.2007 118.068 92.0586C117.073 86.9166 113.092 82.604 110.604 80.1159C108.116 77.6278 99.6565 71.1588 95.178 66.3486C92.6899 63.6946 88.5432 59.2161 88.5432 59.2161C88.5432 59.2161 98.8272 67.8414 104.799 71.9882C106.126 66.5144 122.381 61.2065 122.381 61.2065L125.367 65.5192L126.694 67.3438C136.148 62.5335 149.916 49.5955 149.916 49.5955C149.916 49.5955 156.053 86.419 151.408 90.3999C142.12 98.03 109.443 108.314 109.443 108.314Z" fill="#FF8819"/>
<path d="M126.528 18.5776C129.182 26.0418 132.333 53.2447 132.333 53.2447C132.333 53.2447 129.348 56.2304 127.523 57.5574C119.727 63.3629 109.277 66.6803 104.467 74.3104C97.8319 69.1684 88.709 59.2161 88.709 59.2161L69.6338 76.4667L61.0084 93.8832C61.0084 93.8832 55.0371 78.7889 57.3593 69.9977C76.9322 46.2781 101.647 49.2638 110.438 46.6098C118.4 38.4821 123.874 26.7053 126.528 18.5776ZM147.593 53.9082C147.593 53.9082 146.93 70.4953 144.442 72.3199C142.12 74.1445 125.532 76.4667 125.532 76.4667L120.556 91.2293L117.571 85.9214L115.083 66.6803L136.48 63.3629L147.593 53.9082Z" fill="#FFA819"/>
<path d="M146.266 184.947L152.901 180.136C152.901 180.136 157.877 148.289 148.92 133.029C142.119 121.418 143.612 123.74 134.158 120.588C136.646 119.759 145.603 118.93 145.603 118.93C145.603 118.93 148.423 112.461 148.92 109.973C147.096 108.646 135.816 107.816 129.182 108.977C129.182 108.646 131.67 105.992 131.67 105.992C131.67 105.992 114.087 108.646 99.3247 121.418C100.983 113.124 109.775 95.2102 111.102 88.2436C110.604 85.092 88.7089 67.5096 88.7089 67.5096L87.7137 64.3581C87.7137 64.3581 70.9607 83.4333 68.1409 116.442C68.8044 118.598 69.6337 120.588 69.6337 120.588L71.2924 121.75L68.8043 122.247C68.8043 122.247 58.5204 109.475 46.2459 110.802C50.3927 114.783 56.6957 122.579 60.179 129.546C64.1599 137.673 64.9893 144.64 64.9893 144.64C63.6624 141.488 61.5061 136.844 59.018 132.365C53.876 123.242 46.9094 113.456 40.7721 110.139C38.2841 108.646 31.6492 105.992 31.6492 105.992L24.8484 109.807C24.8484 109.807 10.2517 116.276 6.2708 168.857C4.11447 196.723 25.8436 215.633 43.5919 226.415C55.3687 233.547 87.2161 228.073 87.2161 228.073L121.22 204.851C125.201 200.041 146.266 184.947 146.266 184.947Z" fill="#FFB01C"/>
<path d="M2.62177 180.136C2.95351 182.956 3.28518 185.444 3.78279 187.767C5.93912 202.363 14.5645 216.296 17.2184 216.131C19.3748 215.301 13.4033 196.558 11.247 182.127C10.9153 179.971 8.26136 177.814 7.76374 175.492C5.77329 162.388 2.95351 148.123 1.79241 149.284C-0.198044 150.28 0.797185 165.54 2.62177 180.136Z" fill="#FF852E"/>
<path d="M59.5156 62.5335L56.6958 60.8748L45.5824 49.7614L40.6062 70.993L41.9332 77.9596L30.6539 87.5801C30.6539 87.5801 27.1706 92.7221 28.9952 96.2054C31.4833 92.2245 40.2745 82.1063 46.5777 77.7937C45.7483 79.95 45.4165 83.9309 45.9141 88.4095C55.8664 84.0968 54.8712 82.9357 54.8712 82.9357C54.8712 82.9357 53.0466 72.9834 53.2125 71.8223C53.2125 70.1636 59.5156 62.5335 59.5156 62.5335Z" fill="#FFA819"/>
<path d="M98.993 55.0693C98.993 55.0693 71.1266 63.3629 62.5013 109.973C53.0466 106.821 44.0896 107.485 44.0896 107.485L37.2888 96.703L50.2268 98.5276C50.2268 98.5276 49.3974 86.5848 54.3736 77.296C54.8712 78.9548 60.345 92.2245 60.345 92.2245C60.345 92.2245 60.1791 81.1111 61.1743 71.9882C65.9846 65.5192 76.4345 58.3867 98.993 55.0693Z" fill="#FFCB2B"/>
<path d="M132.997 195.562C133.328 196.226 133.494 197.055 133.494 197.885V198.05C133.328 199.875 132.333 201.866 131.006 204.022C129.679 206.178 128.021 208.169 126.528 209.993C126.362 210.159 126.196 210.491 126.03 210.657C124.869 211.984 123.874 212.979 123.21 213.642C123.044 213.808 123.044 213.808 122.879 213.974C122.879 214.14 122.713 214.14 122.713 214.306C122.713 214.472 122.713 214.472 122.547 214.638V214.804V214.969C122.547 215.135 122.547 215.135 122.713 215.135L122.879 215.301L123.044 215.467C123.21 215.633 123.21 215.633 123.376 215.799C123.542 215.965 123.708 216.13 123.708 216.296C123.874 216.628 124.04 217.126 123.708 217.789C123.708 217.955 123.542 218.121 123.376 218.453L123.21 218.619C123.21 218.619 123.21 218.784 123.044 218.784C122.879 218.95 122.879 219.116 122.713 219.282C122.713 219.282 122.547 219.448 122.547 219.614C122.547 219.78 122.381 219.78 122.381 219.945C122.215 220.111 122.215 220.277 122.049 220.443C121.883 220.609 121.883 220.609 121.717 220.775C120.225 222.434 117.571 224.756 113.258 228.073C113.258 228.073 113.092 228.073 113.092 228.239C112.263 228.903 111.433 228.239 110.106 228.737C106.623 230.064 101.813 231.888 96.0074 233.049C84.5623 235.372 68.9703 237.03 52.5491 234.708C42.9285 233.381 32.4787 228.571 28.3319 225.585C27.0049 224.59 21.5311 220.941 18.2137 218.121C17.3843 217.457 16.7208 216.794 16.2232 216.296C16.2232 216.13 16.0574 216.13 15.8915 216.13C15.8915 216.13 15.8915 216.13 15.7256 215.965C15.7256 215.633 15.7256 215.301 15.5598 214.969C14.5645 207.339 13.2375 199.212 11.0812 191.747C9.9201 187.766 7.43207 181.961 5.93923 179.639C3.45116 150.445 20.8676 124.238 31.981 130.541C39.1134 134.522 41.6016 142.815 42.9285 150.279C46.4118 169.355 37.7865 191.416 37.2889 192.079C38.1182 191.581 64.16 196.724 62.6672 189.923C62.9989 174.497 76.2687 155.587 83.7329 149.616C90.6995 143.976 104.799 137.01 119.063 145.801C131.172 153.265 140.627 174.165 129.016 193.738C130.509 194.07 131.504 194.733 132.167 195.562C132.831 195.396 132.997 195.562 132.997 195.562Z" fill="#FEF0D2"/>
<path d="M132.997 195.562C132.831 195.396 132.831 195.397 132.831 195.397C132.665 195.065 132.333 194.899 132.001 194.567C127.689 197.553 111.599 211.32 101.979 215.467C80.0836 224.922 45.4165 228.239 16.0573 214.804C16.0573 215.135 16.2231 215.467 16.2231 215.799C16.2231 215.799 16.2232 215.799 16.3891 215.965C16.3891 215.965 16.555 216.13 16.7208 216.13C17.2184 216.628 17.8818 217.292 18.7112 217.955C22.0286 220.775 27.3366 224.424 28.8294 225.419C32.9762 228.405 43.4261 233.049 53.0466 234.542C69.4679 236.864 85.0598 235.206 96.5049 232.883C102.31 231.722 107.121 229.898 110.604 228.571C111.931 228.073 112.594 228.737 113.59 228.073C113.59 228.073 113.756 228.073 113.756 227.907C116.41 225.751 120.225 219.78 123.044 215.301C124.371 213.145 125.532 211.486 126.196 210.491C126.362 210.159 126.694 209.993 126.694 209.827C130.177 207.173 129.845 206.842 130.84 204.685C131.006 204.354 131.006 204.188 131.172 203.856C132.001 202.363 133.328 200.041 133.66 197.885V197.719C133.494 197.055 133.494 196.392 132.997 195.562Z" fill="#F3E3C7"/>
<path d="M163.351 199.543C158.541 206.012 141.788 222.268 139.466 223.263C140.129 219.448 141.29 218.95 139.466 217.292C135.153 213.311 126.03 206.178 119.893 208.334C121.22 209.33 131.172 200.87 132.831 199.543C154.892 183.288 199.511 151.938 163.351 199.543Z" fill="#FFB640"/>
<path d="M87.5478 64.1922L88.5431 67.3438C88.5431 67.3438 97.9978 74.808 104.633 80.9452L104.799 87.5801C104.799 87.5801 82.5717 103.006 71.7901 119.925C70.4631 119.096 69.4679 118.266 68.4726 117.603C68.3068 116.939 68.1409 116.939 67.975 116.276C70.7949 83.2674 87.5478 64.1922 87.5478 64.1922Z" fill="#FFCB2B"/>
<path d="M147.096 212.149C147.096 215.965 144.774 220.111 141.29 223.595C137.807 227.078 132.997 229.898 127.855 231.391C122.547 232.883 117.902 232.718 114.419 231.225C110.936 229.732 108.779 226.912 108.945 223.097C108.945 219.282 111.268 215.135 114.751 211.652C118.234 208.169 123.044 205.349 128.186 203.856C133.494 202.363 138.139 202.529 141.622 204.022C144.939 205.349 147.096 208.169 147.096 212.149Z" fill="#FF852E"/>
<path d="M145.437 212.647C145.437 209.33 143.612 206.842 140.461 205.515C137.309 204.188 132.997 204.022 128.021 205.349C123.21 206.676 118.732 209.33 115.58 212.481C112.429 215.633 110.438 219.116 110.438 222.434C110.438 225.751 112.263 228.239 115.414 229.566C118.566 230.893 122.878 231.059 127.689 229.732C132.499 228.405 136.978 225.751 140.129 222.599C143.447 219.448 145.271 215.799 145.437 212.647Z" fill="#FEF0D2"/>
<path d="M139.632 39.975L147.759 0C147.759 0 154.56 19.2411 152.569 22.0609C150.579 24.8807 139.632 39.975 139.632 39.975Z" fill="#FF5E19"/>
<path d="M111.268 12.2745L111.599 27.3688L106.623 22.2268C106.457 20.2363 111.268 12.2745 111.268 12.2745Z" fill="#FF5E19"/>
<path d="M123.21 207.339L124.703 210.657C124.703 210.657 119.727 213.145 116.41 217.292C113.59 220.941 111.599 225.751 115.248 229.068C115.746 229.566 116.907 230.064 118.068 230.395C117.073 230.229 116.244 229.898 115.414 229.566C112.263 228.239 110.438 225.751 110.438 222.434C110.438 219.116 112.429 215.633 115.58 212.481C117.736 210.491 120.225 208.666 123.21 207.339Z" fill="#00CAE0"/>
<path d="M6.43678 180.966C7.92963 184.449 9.58828 189.093 11.247 195.065C12.9057 201.534 14.2327 207.671 14.7304 212.315C14.8962 213.145 14.8962 213.974 14.8962 214.803C4.44628 203.192 1.29477 190.918 6.43678 180.966Z" fill="#FEF0D2"/>
<path d="M11.7447 197.553C13.0717 203.027 14.2327 208.169 14.5644 212.315C14.7303 213.145 14.7304 213.974 14.7304 214.803C13.5693 213.477 12.574 212.15 11.5788 210.988C10.9153 206.676 9.92011 201.866 9.25662 198.548L11.7447 197.553Z" fill="#00CAE0"/>
<path d="M38.2841 158.407C40.1087 164.213 39.2792 184.283 37.7864 187.766C37.1229 187.932 31.981 185.278 26.6731 183.62C23.0239 182.624 19.3747 183.454 17.5502 180.966C11.5788 171.345 14.0668 156.251 14.8962 153.431C19.2088 144.142 22.6921 141.654 26.0096 141.82C33.142 141.82 35.6301 150.114 38.2841 158.407Z" fill="white"/>
<path d="M25.8438 142.483C25.8438 142.483 25.6779 142.483 25.8438 142.483C25.0144 143.313 24.185 144.308 23.5215 145.469C20.8676 149.948 19.2089 155.753 19.2089 162.388C19.2089 168.857 20.8676 174.828 23.5215 179.307C26.1755 183.785 30.1564 186.605 34.6349 186.605C35.6301 186.605 36.6254 186.439 37.6206 186.108C38.9476 180.966 39.4451 163.715 37.7864 158.573C35.4642 150.611 32.9762 142.483 25.8438 142.483Z" fill="#06162E"/>
<path d="M28.8294 143.147C27.8342 144.142 26.839 145.137 26.0096 146.63C23.6874 150.445 22.1946 155.919 22.1946 161.89C22.1946 167.862 23.6874 173.336 26.0096 177.151C28.3318 180.966 31.4834 183.122 34.6349 183.122C35.796 183.122 37.123 182.79 38.1182 182.293C38.9476 175.16 38.9476 162.886 37.6206 158.739C35.796 151.938 33.6397 145.137 28.8294 143.147Z" fill="#00C1D6"/>
<path d="M34.469 149.284C32.6444 149.782 31.1516 151.109 29.9905 153.099C28.4977 155.422 27.6683 158.739 27.6683 162.222C27.6683 165.706 28.4977 168.857 29.9905 171.345C31.4834 173.667 33.6397 175.326 35.9619 175.326C36.9571 175.326 37.9524 174.994 38.7817 174.497C38.9476 168.194 38.7816 161.559 37.7864 158.573C36.7912 155.256 35.796 151.938 34.469 149.284Z" fill="#14385B"/>
<path d="M35.9619 152.27C34.8008 152.602 33.8056 153.431 32.9762 154.924C31.981 156.583 31.1516 159.071 31.1516 161.89C31.1516 164.71 31.8151 167.033 32.9762 168.857C33.9714 170.682 35.4642 171.511 36.9571 171.511C37.7864 171.511 38.45 171.179 39.1135 170.848C39.1135 165.871 38.9476 161.061 38.2841 158.739C37.4547 156.417 36.7912 154.26 35.9619 152.27Z" fill="white"/>
<path d="M26.6731 151.109C28.4977 151.606 29.4929 153.597 28.9953 155.256C28.4977 157.08 26.6731 158.075 24.8485 157.578C23.0239 157.08 22.0287 155.09 22.5263 153.431C23.024 151.606 25.0144 150.611 26.6731 151.109Z" fill="white"/>
<path d="M28.6635 137.673C28.3318 137.673 28.1659 137.673 27.8342 137.839C23.0239 139.498 15.228 145.801 12.5741 154.924C10.9154 152.104 9.75425 148.621 9.75425 148.621C9.75425 148.621 8.92484 173.667 17.0525 182.956C20.0382 183.288 23.5216 183.785 27.6683 184.781C32.6445 185.942 36.9572 188.43 37.9524 188.264C42.0992 185.61 41.4357 162.886 40.4405 157.578C39.4452 152.27 34.6349 139.166 29.4929 137.673C29.327 137.839 28.9953 137.673 28.6635 137.673ZM25.8438 143.645C32.6445 143.81 35.2984 151.109 37.2889 158.905C38.6158 164.213 38.2841 182.79 36.7913 185.942C35.9619 185.278 23.024 180.136 18.0478 179.639C12.5741 170.682 14.8963 156.914 15.5598 154.26C19.5407 145.801 22.8581 143.479 25.8438 143.645Z" fill="#06162E"/>
<path d="M110.936 150.611C116.078 152.104 120.888 156.251 124.869 167.862C125.367 171.179 124.703 187.435 112.097 194.235C108.282 195.894 102.642 193.24 96.6708 192.411C87.7137 191.416 78.5908 191.582 77.5955 191.084C76.2686 186.937 81.4106 166.203 85.8891 161.227C92.524 154.095 99.1589 146.962 110.936 150.611Z" fill="white"/>
<path d="M114.585 165.374L118.566 173.336L114.585 181.132L109.609 184.615L103.14 184.117L100.32 181.961L98.6612 175.824L101.813 167.033L109.111 164.047L114.585 165.374ZM86.7185 180.8L85.8891 176.155L90.5336 158.739L102.31 149.616L105.13 150.114L108.448 150.279L111.931 149.45L119.229 155.587L122.215 158.241L126.03 166.369L125.864 176.321L123.708 183.288L120.39 188.43L117.239 190.918L112.594 193.406H102.145L100.652 192.908L96.3391 191.416L86.7185 180.8Z" fill="#00C1D6"/>
<path d="M116.575 161.227C115.912 160.729 115.248 160.398 114.419 160.066C108.116 157.412 100.983 161.227 98.1637 168.36C95.5097 175.492 98.3295 183.454 104.467 186.108C110.77 188.762 117.902 184.947 120.722 177.814C123.044 171.511 121.386 164.71 116.575 161.227Z" fill="#14385B"/>
<path d="M112.429 163.549C112.76 163.549 112.926 163.715 113.258 163.881C116.907 165.54 118.898 170.018 118.068 174.828C117.073 180.302 112.76 184.117 108.282 183.454C103.803 182.624 100.983 177.648 101.979 172.009C102.974 166.535 107.287 162.72 111.765 163.383C111.931 163.383 112.263 163.383 112.429 163.549Z" fill="white"/>
<path d="M106.955 147.626C95.8414 146.962 87.8796 154.924 84.5622 159.734C80.4154 165.54 74.9417 183.62 76.9321 191.747C78.7567 192.411 86.2209 192.079 94.5144 193.24C101.647 194.235 107.287 195.397 112.097 196.558C128.021 191.084 134.324 165.374 134.324 165.374C134.324 165.374 131.504 168.36 128.02 170.35C126.694 159.734 121.717 152.27 111.765 148.621C110.604 148.289 107.95 147.626 106.955 147.626ZM123.708 168.194C125.201 177.482 121.386 186.274 112.263 192.411C105.462 191.25 81.0789 189.591 79.586 189.923C78.4249 186.108 83.4011 167.032 87.2162 162.388C92.8558 155.421 102.476 151.109 111.433 154.094C116.078 155.587 122.381 159.734 123.708 168.194Z" fill="#06162E"/>
<path d="M75.1074 201.368C76.1027 199.212 77.2638 187.103 62.9988 184.781C59.8473 180.468 57.8569 176.487 53.3783 173.999C45.0848 169.355 24.6826 189.259 26.8389 208.998C32.8103 207.339 43.5919 204.354 50.8903 203.856C59.6814 206.842 66.9797 205.349 75.1074 201.368Z" fill="#FF8400"/>
<path d="M60.8426 186.439C60.345 184.781 57.3593 177.317 51.3879 175.824C42.9285 175.99 33.6397 189.093 30.8199 195.894C29.9906 198.05 29.3271 200.373 28.8294 206.178C33.8056 204.354 44.7531 202.197 50.8903 201.534C53.0466 202.197 62.6672 205.515 73.1171 199.543C74.2782 189.757 65.6529 187.601 60.8426 186.439Z" fill="#FFA700"/>
<path d="M57.8569 186.937C56.0323 187.103 36.4595 189.093 36.4595 189.093C38.4499 184.781 47.407 177.98 51.0561 177.814C54.7053 177.648 58.5204 184.283 57.8569 186.937Z" fill="#FFBC3E"/>
<path d="M101.813 158.573C103.472 159.402 104.301 161.559 103.472 163.217C102.642 165.042 100.486 165.705 98.8272 164.876C97.1684 164.047 96.3391 162.056 97.1684 160.232C98.1637 158.573 100.154 157.744 101.813 158.573Z" fill="white"/>
<path d="M114.585 151.441C103.14 146.299 92.6899 152.104 87.382 163.052C82.24 173.999 85.2258 186.937 95.5098 191.913C108.779 198.382 119.395 193.904 124.703 182.956C129.845 172.009 124.869 156.085 114.585 151.441ZM123.044 183.951C115.083 196.06 108.614 196.06 98.3295 190.586C89.3725 185.776 87.0503 173.502 91.1971 164.71C96.1732 154.26 105.13 150.445 114.253 154.758C123.376 159.071 130.011 173.17 123.044 183.951Z" fill="#06162E"/>
</svg>
